<svg xmlns="http://www.w3.org/2000/svg" viewBox="0 0 841.89 595.28">
	<radialGradient id="c" cx="673.001" cy="244.126" r="90.507" gradientUnits="userSpaceOnUse">
		<stop offset="0" stop-color="#FFF"/>
		<stop offset=".006" stop-color="#FFF" stop-opacity=".979"/>
		<stop offset=".042" stop-color="#FFF" stop-opacity=".855"/>
		<stop offset=".106" stop-color="#FFF" stop-opacity=".798"/>
		<stop offset="1" stop-color="#FFF" stop-opacity="0"/>
	</radialGradient>
	<radialGradient id="d" cx="673.001" cy="244.918" r="6.666" gradientUnits="userSpaceOnUse">
		<stop offset="0" stop-color="#FFF"/>
		<stop offset="1" stop-color="#FFF" stop-opacity="0"/>
	</radialGradient>
	<radialGradient id="a" cx="414.001" cy="337.057" r="5.334" gradientUnits="userSpaceOnUse">
		<stop offset="0" stop-color="#FFF"/>
		<stop offset=".145" stop-color="#FFF" stop-opacity=".855"/>
		<stop offset="1" stop-color="#FFF" stop-opacity="0"/>
	</radialGradient>
	<radialGradient id="b" cx="344" cy="362.126" r="8.386" gradientUnits="userSpaceOnUse">
		<stop offset="0" stop-color="#FFF"/>
		<stop offset=".145" stop-color="#FFF" stop-opacity=".855"/>
		<stop offset="1" stop-color="#FFF" stop-opacity="0"/>
	</radialGradient>
	<path opacity=".01" fill="#FFF" d="M914.79 244.126c0 135.938-110.18 246.126-246.12 246.126-135.924 0-246.13-110.188-246.13-246.126S532.745-2 668.67-2c135.94 0 246.12 110.188 246.12 246.126z"/>
	<path opacity=".01" fill="#FFF" d="M585.86 296.793c0 32.288-26.17 58.46-58.46 58.46-32.283 0-58.46-26.172-58.46-58.46s26.177-58.46 58.46-58.46c32.29 0 58.46 26.172 58.46 58.46z"/>
	<circle opacity=".01" fill="#FFF" cx="154" cy="438.391" r="96.667"/>
	<circle opacity=".02" fill="#FFF" cx="292.333" cy="383.391" r="72.264"/>
	<circle opacity=".02" fill="#FFF" cx="242.667" cy="401.057" r="27.333"/>
	<circle opacity=".02" fill="#FFF" cx="288.667" cy="382.391" r="20.264"/>
	<circle opacity=".02" fill="#FFF" cx="463" cy="318.793" r="18.264"/>
	<circle opacity=".02" fill="#FFF" cx="545.666" cy="286.792" r="18.264"/>
	<circle opacity=".02" fill="#FFF" cx="517.666" cy="296.792" r="27.792"/>
	<path opacity=".02" fill="#FFF" d="M778.79 244.126c0 58.43-47.358 105.792-105.79 105.792-58.424 0-105.794-47.36-105.794-105.792S614.576 138.333 673 138.333c58.432 0 105.79 47.362 105.79 105.793z"/>
	<circle opacity=".28" fill="url(#a)" cx="414.001" cy="337.057" r="5.334"/>
	<circle opacity=".28" fill="url(#b)" cx="344" cy="362.126" r="8.385"/>
	<path opacity=".46" fill="url(#c)" d="M763.508 244.126c0 49.98-40.516 90.507-90.507 90.507s-90.506-40.525-90.506-90.507c0-49.98 40.516-90.507 90.507-90.507s90.508 40.526 90.508 90.506z"/>
	<circle opacity=".02" fill="#FFF" cx="750.999" cy="209.459" r="38.459"/>
	<circle opacity=".37" fill="url(#d)" cx="673.001" cy="244.918" r="6.666"/>
</svg>
