<svg xmlns="http://www.w3.org/2000/svg" viewBox="0 0 636 206.822">
  <path d="M330.407 103.752c0 18.485-6.266 26.728-20.323 26.728-14.056 0-20.324-8.243-20.324-26.728v-50.88h-18.723v52.822c0 27.31 13.868 42.347 39.047 42.347s39.048-15.037 39.048-42.346V52.87h-18.725v50.882zM434.773 98.902c0 22.35-14.497 32.355-28.862 32.355-18.437 0-28.083-16.276-28.083-32.355 0-20.986 14.13-31.965 28.084-31.965 16.995 0 28.863 13.145 28.863 31.965M409.21 50.154c-12.584 0-23.678 6.026-31.383 17.003V52.87h-18.723v132.963h18.723v-54.246c7.568 10.478 18.653 16.453 30.61 16.453 13.353 0 24.66-5.193 32.692-15.025 7.35-8.992 11.395-21.313 11.395-34.694 0-12.663-4.143-24.556-11.666-33.488-7.976-9.463-19.216-14.678-31.65-14.678M177.827 54.98c-.172-.125-.305-.22-.373-.266-4.623-2.94-9.844-4.56-14.7-4.56-11.097 0-20.048 5.94-24.784 16.367V52.87h-18.723v92.066h18.723v-45.26c0-14.7 2.332-31.577 20.517-31.577 2.863 0 5.272.52 7.383 1.593l11.957-14.712zM90.693 52.87v14.64c-7.61-11.206-18.705-17.356-31.383-17.356-12.432 0-23.672 5.215-31.65 14.678-7.52 8.932-11.665 20.825-11.665 33.49 0 13.38 4.045 25.7 11.395 34.693 8.035 9.828 19.338 15.025 32.697 15.025 11.957 0 23.04-5.98 30.607-16.455v13.72c0 16.19-3.015 32.743-25.37 32.743-16.364 0-26.532-9.572-26.532-24.98v-.63H20.06l.01.638c.376 24.975 18.25 41.755 44.48 41.755 39.767 0 44.87-29.057 44.87-54.37V52.87H90.692zM61.75 131.258c-18.44 0-28.084-16.276-28.084-32.355 0-20.986 14.127-31.965 28.084-31.965 16.992 0 28.86 13.145 28.86 31.965 0 22.35-14.495 32.355-28.86 32.355M620.304 90.607c-8.908 3.74-17.414 5.797-23.938 5.797-5.27 0-8.948-1.3-10.942-3.87-2.183-2.812-2.494-7.336-.906-13.534l5.168-23.455c2.635-11.365 1.564-20.146-3.174-26.108-4.16-5.236-10.842-7.89-19.873-7.89-9.56 0-18.466 3.408-27.142 10.394-3.564-6.9-10.434-10.392-20.46-10.392-8.286 0-16.38 2.938-24.088 8.74-3.14-5.622-11.323-9.507-20.987-9.507-4.676 0-9.443.87-14.162 2.59l-1.313.478-3.676 17.616 4.417-1.84c6.344-2.638 11.4-2.475 13.738.465 1.672 2.097 2.06 5.575 1.104 9.76l-12.257 50.6h20.6l8.166-35.25c4.626-17.436 11.933-25.56 22.99-25.56 2.922 0 5.314.99 6.737 2.785 1.77 2.224 1.965 6.598.564 12.656l-10.517 45.37h20.568l9.665-41.707c2.666-11.246 11.38-19.104 21.19-19.104 3.046 0 5.425.976 6.892 2.818 1.764 2.222 1.955 6.583.555 12.63l-5.916 25.77c-2.258 10.448-.848 18.903 4.174 25.128 5.107 6.328 13.846 9.81 24.607 9.81 8.918 0 18.71-2.39 27.56-6.734l1.124-.55 3.897-19.74-4.363 1.835zM260.455 79.05c-2.1-5.993-5.194-11.213-9.198-15.514-4.005-4.304-8.98-7.73-14.784-10.185-5.82-2.456-12.545-3.7-19.99-3.7-7.446 0-14.17 1.244-19.99 3.7-5.808 2.456-10.782 5.883-14.782 10.185-4.005 4.3-7.1 9.52-9.197 15.514-2.104 6.012-3.17 12.662-3.17 19.765 0 7.228 1.066 13.94 3.17 19.95 2.095 5.99 5.19 11.21 9.197 15.513 4.002 4.306 8.976 7.732 14.784 10.185 5.82 2.457 12.544 3.702 19.99 3.702 7.442 0 14.17-1.245 19.99-3.702 5.8-2.45 10.775-5.876 14.784-10.185 4.005-4.303 7.1-9.523 9.197-15.514 2.104-6.018 3.17-12.73 3.17-19.95 0-7.093-1.065-13.743-3.17-19.765m-31.385 51.268c-3.553 2.03-7.788 3.06-12.587 3.06-4.803 0-9.037-1.03-12.586-3.06-3.535-2.02-6.48-4.708-8.754-7.995-2.26-3.264-3.945-6.98-5.005-11.047-1.058-4.028-1.594-8.22-1.594-12.46 0-4.114.536-8.275 1.592-12.37 1.062-4.13 2.748-7.85 5.01-11.054 2.274-3.22 5.217-5.876 8.75-7.895 3.557-2.032 7.79-3.062 12.587-3.062 4.793 0 9.027 1.03 12.587 3.06 3.536 2.024 6.48 4.68 8.75 7.898 2.257 3.198 3.943 6.918 5.01 11.054 1.06 4.12 1.595 8.28 1.595 12.368 0 4.215-.537 8.408-1.595 12.462-1.066 4.07-2.75 7.788-5.006 11.047-2.27 3.284-5.216 5.973-8.754 7.994"/>
</svg>
