<svg xmlns="http://www.w3.org/2000/svg" viewBox="0 0 144.958 39.062">
	<path d="M.822 38.24H37.99V1.072H.822V38.24zm37.99.822H0V.248h38.813v38.814z"/>
	<path d="M3.41 30.32l4.667 4.76 10.94-11.1 11.306 11.33 4.737-4.692-11.19-11.192 2.15-2.082v-4.44l1.35-1.145v3.48l1.74 1.418 5.195-5.195 1.67 1.28c.985-3.638-4.714-11.9-9.428-7.323l-5.492 5.446 1.12 1.352-2.792 2.722-2.7-2.654 1.42-1.282-6.02-5.814c-4.53-3.73-9.177 1.948-9.337 7.485L4.393 11.3l5.058 5.45 1.808-1.51v-3.342l1.123.846v4.37l2.198 2.197L3.41 30.32zM49.525 8.51h-1.42V5.213h1.42c1.42.138 1.945 2.93 0 3.297m2.54 2.38c4.897-2.38 3.066-8.88-2.083-8.95H44.08v14.922h4.025v-4.85l3.434 4.85h4.76l-4.235-5.972zM62.707 13.888c-1.305 0-2.38-1.008-2.38-2.243 0-1.235 1.075-2.242 2.38-2.242 1.327 0 2.402 1.007 2.402 2.242s-1.076 2.243-2.403 2.243m6.087 2.975l-.022-10.367h-3.937v.572c-.847-.595-1.876-.962-2.975-.962-2.93 0-5.332 2.495-5.332 5.54 0 3.044 2.402 5.515 5.332 5.515 1.1 0 2.128-.342 2.975-.937l-.022.64h3.98zM70.878 6.496h4.187v10.366h-4.187V6.496zM72.982.568c1.213 0 2.198 1.007 2.198 2.22 0 1.213-.985 2.22-2.198 2.22-1.236 0-2.22-1.007-2.22-2.22 0-1.213.984-2.22 2.22-2.22M104.77 6.496h4.19v10.366h-4.19V6.496zM106.853.568c1.237 0 2.22 1.007 2.22 2.22 0 1.213-.983 2.22-2.22 2.22-1.212 0-2.197-1.007-2.197-2.22 0-1.213.985-2.22 2.197-2.22M75.844 6.496V9.79h1.44v7.072h4.052v-7.07h3.8v7.07h4.186V9.746h2.61V6.542h-2.723V4.23c-.07-.846 1.92-1.19 2.607-.504V.34c-3.845-1.214-6.957.96-6.935 4.325v1.83h-3.57V4.23c-.046-.846 1.694-1.19 2.702-.504V.34c-3.342-.984-6.913.64-6.89 4.302v1.83l-1.28.024zM99.53 9.883h-2.975c.046-1.26 2.792-1.26 2.975 0m-3.502 2.45h7.69c0-4.212-2.243-6.204-5.812-6.204-3.57 0-5.814 2.518-5.814 5.584 0 3.067 2.61 5.47 5.814 5.447 3.59-.022 4.92-1.51 5.697-3.683h-3.638c-1.648 2.105-4.052.57-3.937-1.145M128.046 9.883h-2.975c.046-1.26 2.793-1.26 2.976 0m-3.5 2.45h7.69c0-4.212-2.22-6.204-5.815-6.204-3.57 0-5.813 2.518-5.813 5.584 0 3.067 2.61 5.47 5.814 5.447 3.616-.022 4.945-1.51 5.722-3.683h-3.662c-1.647 2.105-4.05.57-3.935-1.145"/>
	<path d="M119.51 6.702l-1.237 2.518c-1.557-.48-3.067-.39-3.02.045.045.275-.207.755 2.22 1.1 3.616.57 3.317 7.3-2.747 6.796-1.67-.114-3.02-.548-4.143-1.213l1.35-2.7c1.9.938 3.73 1.487 3.87.55.158-1.168-1.993-.756-3.297-1.74-2.335-1.442-1.007-5.905 2.814-5.95 1.35-.092 2.748.138 4.19.595M133.836 6.496v10.366h3.912v-6.338c.116-1.58 3.228-1.854 3.25 0v6.338h3.96v-6.498c-.09-3.64-3.912-5.402-7.37-3.09v-.778h-3.752zM50.577 34.92H48.86l.527-2.54h1.785c1.12 0 1.35 2.633-.595 2.54m-.32-8.055h.686c1.9 0 .984 2.173-.595 2.082l-.526-.023.435-2.06zm4.416 3.363c3.044-2.814 1.488-7.05-1.783-7.095l-6.502.07-2.608 15.38h7.392c5.013 0 7.073-6.226 3.5-8.355M63.645 32.677l1.9-4.05.892 4.05h-2.792zm4.92-9.383h-4.234l-7.985 15.31h4.485l1.35-2.7h5.08l.756 2.746h4.142l-3.592-15.356zM73.577 38.65h4.142l1.052-9.634 5.927 9.588h4.44l1.853-15.402H86.85l-1.166 9.635-5.927-9.68h-4.28l-1.9 15.494zM93.968 23.158l-2.906 15.446h4.37l1.17-5.766 3.912 5.766h5.745l-5.61-8.1 7.166-7.37h-5.562l-4.898 5.446.778-5.447-4.166.025z"/>
</svg>
