<svg xmlns="http://www.w3.org/2000/svg" viewBox="0 0 119.042 57.232">
	<path d="M36.768 37.418h7.556v2.47H40.73V57.23h-3.962V37.418zM44.415 57.23h3.88l.365-5.26h1.87l.37 5.26h3.874l-2.066-19.813H46.48L44.415 57.23zm4.387-7.436l.68-9.907h.227l.678 9.907h-1.586zM60.446 50.296v3.735c0 .505.39.65.62.65.37 0 .63-.307.63-.65v-4.61c0-.617-.113-1.3-1.59-1.3h-1.61v-2.175h1.675c1.122 0 1.527-.26 1.527-1.48v-3.93c0-.34-.26-.65-.633-.65-.227 0-.618.13-.618.65v3.233h-3.963v-2.81c0-1.38.163-3.54 2.942-3.54h3.28c2.777 0 2.956 2.16 2.956 3.54v3.167c0 2.16-1.51 2.745-2.694 2.696v.196c2.662-.065 2.695 1.98 2.695 2.68v3.995c0 1.398-.178 3.54-2.956 3.54h-3.28c-2.778 0-2.94-2.142-2.94-3.54v-3.394h3.962zM68.258 37.418h9.177v19.814H73.47V39.887h-1.248v17.345h-3.964V37.418zM80.033 57.23h3.96v-6.74h2.275c2.76 0 2.94-2.14 2.94-3.54v-5.993c0-1.38-.18-3.54-2.94-3.54h-6.235V57.23zm3.96-8.915v-8.428h.52c.425 0 .733.357.733.99v6.448c0 .634-.308.99-.732.99h-.52zM91.807 53.69c0 1.398.18 3.54 2.94 3.54h3.295c2.76 0 2.94-2.142 2.94-3.54V40.96c0-1.38-.18-3.54-2.94-3.54h-3.295c-2.76 0-2.94 2.16-2.94 3.54V53.69zm5.214.34c0 .343-.26.65-.633.65-.228 0-.618-.145-.618-.65V40.537c0-.518.39-.648.617-.648.374 0 .634.308.634.648V54.03zM113.877 37.418h5.165v19.814h-3.962V44.808h-.147l-2.046 12.424h-3.167l-2.03-12.424h-.145v12.424h-3.964V37.418h5.15l2.58 13.935 2.567-13.935zM31.28 19.342c-.044 2.03-.287 4.174-.596 5.458.112-2.21-.153-5.31-.66-7.748-.507-2.42-1.942-6.48-3.086-8.347-1.057 1.786-2.36 5.295-3.042 8.33-.685 3.04-.705 6.725-.705 7.83-.18-.926-.636-4.255-.507-7.585.108-2.745.75-5.586 1.103-6.886 1.343-4.337 2.866-7.113 3.152-7.552.285.44 2.2 3.865 3.196 7.455.988 3.59 1.19 7.032 1.147 9.045m-4.32 15.51c-.596-1.12-1.52-3.247-1.608-6.56-.024-3.185 1.255-5.928 1.63-6.497.33.57 1.432 2.955 1.564 6.22.09 3.184-.97 5.7-1.585 6.837m4.673-24.522C30.42 5.02 27.38.697 26.96 0c-.662.99-3.087 4.807-4.318 9.03-1.348 4.725-1.545 8.916-1.08 13.025.46 4.125 2.202 8.364 2.202 8.364.927 2.207 2.314 4.595 3.217 5.764 1.324-1.722 4.366-6.854 5.314-13.544.527-3.736.55-7-.66-12.31"/>
	<path d="M29.02 37.418h-9.224v6.188c.008 0 .014-.017.023-.017 2.172-2.177 5.695-2.177 7.87 0 2.172 2.16 2.172 5.683 0 7.86-.01.015-.02.015-.03.032-.01 0-.02.016-.03.032-2.17 2.144-5.003 3.216-7.834 3.216-2.845 0-5.69-1.072-7.86-3.248-3.827-3.817-4.28-9.744-1.364-14.064.394-.585.847-1.138 1.363-1.656 2.17-2.177 5.016-3.248 7.86-3.248V17.637C8.866 17.637 0 26.487 0 37.417c0 10.93 8.864 19.797 19.796 19.797 5.7 0 10.834-2.42 14.448-6.267v-13.53H29.02z"/>
</svg>
