<svg xmlns="http://www.w3.org/2000/svg" viewBox="0 0 5556 1270">
	<path class="fil1" d="M244 590c-52-73-83-162-87-247v-18c0-71 21-135 55-184 19-33 62-66 116-87-25 9-48 21-71 36-396 241-182 862-20 1054 2 3 20 22 25 27 102 100 247 116 325 37 76-77 59-217-36-317-100-108-214-163-307-300z"/>
	<path class="fil1" d="M443 29c-6 0-12 1-18 1 33-2 61 3 80 15 3 2 7 4 10 6 16 11 28 25 38 42 15 25 23 56 23 90v2c0 69-32 150-92 218l-5 5c-5 6-10 12-14 19-60 86-47 198 29 250 76 53 185 26 245-60 3-4 6-9 8-13C918 336 719 17 443 28z"/>
	<path class="fil2" d="M297 509c8-142 100-253 205-246 19 1 39 7 56 16 11-32 17-63 17-92v-2c0-34-8-65-23-90-10-17-22-31-38-42-3-2-7-4-10-6-35-21-101-21-169 4-59 22-104 56-124 90-34 49-55 113-55 184v18c4 85 35 174 87 247 42 62 89 108 136 149-55-48-88-134-83-230z"/>
	<path d="M1798 516c116 0 202 67 202 188 0 122-85 188-202 188s-202-66-202-188 85-188 202-188zm0 308c45 0 94-35 94-119 0-85-49-119-94-119-46 0-94 35-94 119 0 85 49 119 94 119zM2761 522h-331c-5 0-8 4-8 8v55c0 4 4 8 8 8h114v287c0 4 4 8 9 8h86c5 0 8-3 8-8V593h114c5 0 8-3 8-8v-55c0-4-4-8-8-8zM2366 887c4 0 8-3 8-8l-1-55c0-4-4-8-8-8h-78c-72 0-120-44-120-110 0-73 53-113 122-113h71c4 0 8-3 8-7v-56c0-4-4-8-8-8h-88c-139 0-212 82-212 179s70 186 210 186h96zM4483 879l-159-185 124-147s3-4 7-8l9-10c3-4 1-7-5-7h-96c-5 0-9 2-12 4l-122 161h-4V529c0-4-3-7-8-8h-87c-5 0-8 4-8 8v350c0 4 4 8 8 8h86c4 0 8-3 8-8V712h4l127 169c3 4 7 6 13 6h109c6 0 8-4 5-8zM1365 393h-119c-20 3-35 18-37 36v450c0 4 4 8 8 8h91c5 0 8-3 8-8V701h69c135 0 184-89 184-154 0-31-11-155-203-155zm0 231h-49V471h49c62 0 90 33 90 74 0 37-25 79-90 79zM3586 522h-263c-24 0-44 19-44 42v140c0 72-30 112-81 112h-3c-4 0-8 3-8 7v57c0 4 3 7 8 8h22c54 0 153-25 153-184V593h121v287c0 4 4 8 8 8h86c4 0 8-3 8-8V530c0-4-3-7-8-8zM5450 589v-26c0-23-20-42-44-42h-81c-4 1-7 2-11 7l-114 166-113-165c-5-7-11-7-16-7h-75c-24 0-44 19-44 42v317c0 4 4 7 8 7h86c4 0 8-3 8-8V680l-2-74h4l133 198c7 10 19 10 26 0l132-198h4l-2 74v200c0 4 4 8 8 8h86c4 0 8-3 8-8V590zM4684 516c116 0 202 67 202 188 0 122-85 188-202 188-116 0-202-66-202-188s85-188 202-188zm0 308c45 0 94-35 94-119 0-85-49-119-94-119s-94 35-94 119c0 85 49 119 94 119zM3122 815h-84c-70 0-127-36-130-82h217c24 0 44-19 44-41v-8c-4-57-30-168-176-168-105 0-193 71-193 188 0 129 117 183 234 183h88c4 0 8-3 8-7v-57c0-4-4-7-8-7zm-135-233c38 0 82 24 81 85h-161c1-48 35-85 80-85zM3998 807s-53 5-92 5c-70 0-127-32-130-79h218c24 0 44-19 44-41-3-54-23-176-176-176-105 0-193 71-193 188 0 129 116 183 234 183 46 0 96-5 96-5 4 0 8-3 8-7v-61c0-4-4-7-8-7zm-143-225c38 0 82 24 81 85h-161c1-48 35-85 80-85z"/>
</svg>
