<svg xmlns="http://www.w3.org/2000/svg" viewBox="0 0 233.858 41.721">
  <path d="M8.538 23.56c.465 2.545.86 5.12.86 7.386 0 4.867-1.633 8.36-3.975 8.36-1.893 0-1.893-2.043-1.893-3.418 0-4.17 2.135-8.557 5.006-12.33h.002zm-.188-.96c-.508.64-1.002 1.295-1.474 1.965h-.003c-2.308-2.26-4.16-7.115-4.16-11.08C2.712 3.64 9.25.855 9.584.855c.483 0 .333.11.333.78 0 1.004-2.822 5.684-2.822 12.26 0 2.308.65 5.434 1.26 8.675l-.006.03zm17.648-6.095c-1.303-.076-2.482-.334-2.482-1.16 0-.3.224-.52.595-.52.867 0 1.493.74 1.89 1.676v.005zm8.624-4.314c-.024-2.75-.23-10.48 1.86-10.48.816 0 .928.89.928 2.45 0 3.3-1.213 6.005-2.782 8.034l-.006-.002zm35.73 9c.21.79.344 1.64.344 2.474 0 .707-.37 1.227-.78 1.227-.445 0-.594-.445-.594-1.187 0-.735.38-1.604 1.01-2.514h.02zm16.88-4.997c-.346.075-.695.117-1.044.117-1.003 0-1.598-.41-1.598-1.08 0-.295.335-.666.706-.666.802 0 1.47.706 1.944 1.617l-.006.013zm31.815 6.275l.014-.023c-.645-1.574-1.78-3.09-4.082-3.09-.63 0-.965.56-.965 1.228 0 1.226 1.932 2.005 3.715 2.005.372 0 .82-.045 1.32-.12m14.28 1.1h-.01c-2.87 3.768-5 8.155-5 12.32 0 1.375 0 3.42 1.893 3.42 2.34 0 3.976-3.495 3.976-8.36 0-2.264-.395-4.835-.86-7.38m17.454-7.062l.005-.01c-.398-.933-1.023-1.672-1.887-1.672-.373 0-.596.22-.596.52 0 .825 1.176 1.084 2.478 1.16m8.628-4.3c1.573-2.03 2.788-4.74 2.788-8.042 0-1.56-.11-2.452-.928-2.452-2.095 0-1.885 7.755-1.86 10.494m35.728 8.974h-.01c-.633.91-1.018 1.785-1.018 2.525 0 .743.15 1.19.595 1.19.408 0 .78-.52.78-1.23 0-.84-.135-1.69-.347-2.485m-63.993 4.136c-.922-.7-1.778-1.903-3.087-2.8-1.104-.756-4.014.064-6.54.52l-.004.005c-.22 1.454-.72 2.892-1.22 2.892-.327 0-.47-1.15-.88-2.49l-.026-.016c-1.128.202-2.083.35-2.66.35-1.748 0-5.76-.778-5.76-3.418 0-1.484 1.672-2.08 3.27-2.08 1.82 0 4.717 1.3 5.424 2.713.185-2.526-1.635-3.9-1.635-4.308 0-.41 1.97-1.153 2.155-1.153.78 0 1.45 3.567 1.45 6.093 0 .12-.005.243-.01.37 2-.4 4.15-.822 5.545-.632-1.338-1.892-2.342-4.494-2.342-8.096 0-9.14 9.102-13.264 10.515-13.264.63 0 .78.148.78.52 0 .818-1.19 1.635-1.19 7.876 0 4.318.488 8.007.9 11.128 3.627-3.773 7.477-6.373 9.838-6.373.072 0 .11.15.11.3 0 .26-2.38 1.374-2.376 4.94-.002 2.786 1.706 5.313 3.936 5.313 2.526 0 3.976-2.675 3.976-4.644 0-.39-.046-.842-.14-1.304l-.003-.002c-3.53-.076-4.65-1.408-4.65-2.67 0-.855.854-1.857 1.968-1.857 1.338 0 3.218 1.02 3.92 3.31.246 0 .477-.003.687-.003.764 0 2.098-.545 3.514-1.588l.002-.01c-.036-1.52-.062-3.003-.062-4.163 0-5.312 1.783-10.14 4.828-10.14 1.56 0 2.378 1.3 2.378 2.97 0 3.57-1.78 7.34-4.338 10.088l-.012.028c-.025 4.54-.164 7.013.487 7.013.78 0 3.23-7.913 6.354-7.913 3.27 0 .593 10.105 1.968 10.105 1.672 0 5.497-10.254 8.06-10.254 3.567 0 1.117 8.58 2.342 8.58 1.263 0 3.156-8.58 6.465-8.58 4.196 0 .26 10.923 2.415 10.923 1.633 0 5.793-11.33 6.723-11.33.742 0-.37.892 2.488 4.978.122.17.232.35.334.528l.013.002c2.96-2.73 6.908-5.1 9.795-5.1.522 0 .817.076.817.447 0 .854-2.564 1.56-2.564 5.795 0 2.6 1.785 4.718 3.79 4.718 2.563 0 3.902-2.564 3.902-4.532 0-.5-.105-1.133-.3-1.763l-.018-.007c-.542.152-1.106.247-1.69.247-2.19 0-3.12-1.56-3.12-2.712 0-.854.82-1.672 1.894-1.672 1.488 0 3.025.86 3.883 2.534l.007.002c2.323-1.003 4.45-2.944 5.882-2.944 3.53 0 1.524 7.654 2.34 7.654.893 0 3.605-7.95 6.428-7.95 2.228 0 2.043 2.97 2.043 4.31 0 3.044-.706 7.167.41 7.167.78 0 2.75-3.23 3.008-3.23.262 0 .298.075.298.41 0 .63-3.195 5.42-4.94 5.42-2.527 0-2.303-3.86-2.303-5.086 0-.966.296-5.945-.447-5.945-.556 0-2.006 3.23-3.342 5.61-1.374 2.414-2.044 5.126-3.418 5.126-1.82 0-1.45-2.527-1.45-4.977 0-3.272.41-6.43-.63-6.43-.48 0-1.767 1.133-3.462 1.934l-.002.006c.17.604.27 1.282.27 2.035 0 2.08-1.078 7.43-6.095 7.43-3.565 0-6.354-2.786-6.354-6.428 0-3.38 1.895-4.42 2.974-5.608-1.85.307-4.875 2.19-7.215 4.355l-.006.022c.565 1.443.607 2.882.607 3.387 0 2.415-1.524 4.086-3.084 4.086-1.04 0-2.08-.67-2.08-2.006 0-1.05.74-2.457 1.92-3.923v-.01c-.594-1.613-1.434-2.79-1.884-2.79-.928 0-3.64 8.73-7.058 8.73-3.753 0-1.153-10.625-2.415-10.625-1.225 0-4.83 10.625-6.91 10.625-2.934 0-.297-10.44-1.598-10.44-1.67 0-5.536 10.44-8.136 10.44-3.677 0-.927-10.29-2.45-10.29-.82 0-2.157 2.786-3.42 5.57-1.08 2.23-1.71 4.57-2.86 4.57-1.077 0-1.3-.41-1.302-3.863.002-1.096-.07-3.508-.134-6.003l-.005-.005c-1.274.83-2.626 1.397-3.986 1.607l-.005.007c.028.264.045.54.045.825 0 2.49-1.003 7.727-6.13 7.727-3.864 0-5.982-2.935-5.982-6.686 0-2.004.968-3.343 1.895-4.457-2.028 1.22-4.346 3.1-6.508 5.376l-.007.032c.24 1.847.425 3.484.425 4.92 0 10.956-4.793 16.307-7.357 16.307-1.598 0-2.453-2.12-2.453-4.273 0-3.81 1.905-8.17 4.575-12.134m.515-.746c.466-.663.953-1.31 1.455-1.94l.026-.06c-.61-3.24-1.26-6.365-1.26-8.673 0-6.576 2.862-11.256 2.862-12.26 0-.668.113-.78-.37-.78-.335 0-6.874 2.787-6.874 12.63 0 3.97 1.85 8.827 4.162 11.083m80.36-8.375l.006-.01c-.47-.913-1.14-1.62-1.944-1.62-.37 0-.706.372-.706.67 0 .667.632 1.077 1.6 1.077.35 0 .697-.043 1.045-.118m-194.337-1.11c-.928 1.115-1.93 2.454-1.93 4.46 0 3.75 2.153 6.685 6.017 6.685 5.127 0 6.13-5.238 6.13-7.728 0-.29-.015-.567-.047-.83v-.003c1.36-.208 2.718-.778 3.993-1.608l.005.003c.064 2.493.136 4.908.136 6.005-.037 3.453.223 3.863 1.3 3.863 1.152 0 1.783-2.34 2.86-4.57 1.263-2.784 2.6-5.57 3.418-5.57 1.524 0-1.226 10.29 2.453 10.29 2.6 0 6.464-10.44 8.136-10.44 1.3 0-1.34 10.44 1.56 10.44 2.116 0 5.72-10.625 6.946-10.625 1.262 0-1.338 10.625 2.414 10.625 3.38 0 6.13-8.73 7.06-8.73.445 0 1.282 1.17 1.878 2.77l-.005.043c-1.174 1.462-1.91 2.863-1.91 3.91 0 1.338 1.04 2.007 2.08 2.007 1.56 0 3.082-1.67 3.082-4.086 0-.505-.043-1.95-.61-3.39l.003-.016c2.335-2.165 5.354-4.05 7.182-4.36-1.04 1.19-2.935 2.23-2.935 5.61 0 3.64 2.786 6.428 6.352 6.428 5.016 0 6.094-5.35 6.094-7.43 0-.758-.1-1.442-.27-2.05l-.007.008c1.702-.8 2.99-1.934 3.47-1.934 1.04 0 .632 3.158.632 6.428 0 2.45-.37 4.98 1.45 4.98 1.374 0 2.042-2.714 3.417-5.13 1.336-2.376 2.785-5.61 3.342-5.61.743 0 .447 4.98.447 5.946 0 1.225-.224 5.088 2.3 5.088 1.71 0 4.905-4.793 4.905-5.423 0-.335 0-.41-.26-.41s-2.23 3.232-3.01 3.232c-1.114 0-.408-4.124-.408-7.17 0-1.337.187-4.31-2.043-4.31-2.823 0-5.573 7.952-6.427 7.952-.817-.003 1.19-7.654-2.34-7.654-1.436 0-3.57 1.95-5.897 2.95l.014.004c-.858-1.68-2.397-2.546-3.888-2.546-1.077 0-1.894.817-1.894 1.672 0 1.153.93 2.713 3.083 2.713.594 0 1.17-.095 1.72-.25l.02.01c.197.63.304 1.262.304 1.764 0 1.967-1.34 4.53-3.903 4.53-2.006 0-3.788-2.117-3.788-4.717 0-4.235 2.562-4.94 2.562-5.795 0-.37-.297-.447-.855-.447-2.866 0-6.803 2.37-9.76 5.1l-.012-.002c-.1-.18-.21-.356-.333-.528-2.86-4.086-1.746-4.977-2.488-4.977-.93 0-5.09 11.33-6.725 11.33-2.155 0 1.782-10.922-2.415-10.922-3.306 0-5.2 8.582-6.465 8.583-1.225 0 1.226-8.582-2.34-8.582-2.563 0-6.39 10.254-8.06 10.254-1.413 0 1.3-10.105-1.97-10.105-3.12 0-5.573 7.914-6.354 7.913-.65 0-.51-2.47-.486-7.007l.01-.032c2.56-2.748 4.34-6.515 4.34-10.085 0-1.672-.816-2.973-2.377-2.973-3.047 0-4.83 4.83-4.83 10.14 0 1.16.027 2.64.062 4.16l-.01.018c-1.413 1.038-2.745 1.583-3.506 1.583l-.69.002.002.002c-.703-2.29-2.59-3.31-3.958-3.31-1.077 0-1.93 1.002-1.93 1.857 0 1.26 1.117 2.592 4.643 2.67l.01.01c.09.456.138.907.138 1.294 0 1.97-1.45 4.645-4.012 4.645-2.23 0-3.9-2.527-3.9-5.313 0-3.566 2.377-4.68 2.377-4.94 0-.15-.037-.3-.112-.3-2.358 0-6.206 2.6-9.83 6.37l-.008-.003c-.41-3.12-.897-6.808-.897-11.12 0-6.24 1.15-7.06 1.15-7.876 0-.372-.11-.52-.742-.52C9.14 0 0 4.125 0 13.265c0 7.03 3.87 10.152 6.36 12.048-2.67 3.967-4.576 8.327-4.576 12.136 0 2.154.854 4.273 2.452 4.273 2.525 0 7.355-5.35 7.355-16.308 0-1.44-.185-3.08-.424-4.935l.002-.006c2.165-2.282 4.484-4.165 6.515-5.385"/>
</svg>
