<svg xmlns="http://www.w3.org/2000/svg" viewBox="0 0 121.128 19.836">
	<path d="M21.73 14.807L21.754.28l5.66-.026.024 19.355h-9.854L5.76 5.003l-.024 14.553-5.685.052L0 .28.076.253H9.93l11.8 14.553zM90.96.28l.05 19.33h-6.04L84.946.304l.05-.05c1.997 0 3.994-.028 5.965.024M63.9 9.602l.025.025.73-.606 9.68-8.74h8.034L71.3 9.652l.025.1 12.457 9.804-8.768.05L63.95 9.704l-.05.076v9.828h-6.04V.278h6.04v9.324zM36.586 4.827c-.505.1-1.137.303-1.214.884 0 2.88-.075 5.812.052 8.667.176.48.707.43 1.086.555l10.915.025c.935-.076 2.047.153 2.552-.782l.025-8.16-.076-.633c-.15-.378-.53-.43-.86-.53l-12.48-.025zM48.436.05c2.5.1 5.205.28 6.544 2.755.304.68.455 1.415.43 2.25l-.025 10.51c-.077 1.415-1.063 2.652-2.274 3.335-2.626 1.137-5.81.86-8.868.934-3.613-.05-7.327.177-10.688-.43-1.49-.227-3.083-1.464-3.487-2.955l-.202-1.214.05-11.14c.05-1.417 1.29-2.655 2.477-3.287C34.337 0 36.687.1 38.936 0l9.5.05zM106.65 5.13l-3.715 6.898h7.43c-1.24-2.3-2.48-4.624-3.716-6.898m14.478 14.402v.077h-6.67c-.607-1.116-1.214-2.175-1.77-3.286l-.127-.05h-11.85l-1.817 3.284-6.745.05L102.784.28h7.807l10.538 19.254z"/>
</svg>
