<svg xmlns="http://www.w3.org/2000/svg" viewBox="0 0 95.596 19.64">
	<path d="M10.693 3.827v.854H4.8v3.695h3.168c2.085 0 3.3 1.478 3.3 3.202s-1.2 3.202-3.3 3.202H3.863V3.826h6.83zM4.8 9.23v4.694h3.07c1.444 0 2.413-.968 2.413-2.348s-.97-2.348-2.414-2.348H4.8zM23.75 14.778h-8.866V3.828h.936v10.096h6.945V3.827h.952v10.097h.97v2.874h-.937v-2.02zM27.367 9.31c0-3.38 2.562-5.664 5.927-5.664 2.643 0 4.055 1.494 4.778 2.94l-2.43 1.148c-.36-.87-1.297-1.593-2.348-1.593-1.79 0-3.054 1.38-3.054 3.17s1.264 3.17 3.054 3.17c1.05 0 1.987-.724 2.348-1.594l2.43 1.15c-.706 1.41-2.135 2.937-4.778 2.937-3.365.002-5.927-2.297-5.927-5.662zM40.934 14.778V3.828h2.824v6.452l4.433-6.453h2.923v10.95h-2.84V8.015l-4.614 6.764h-2.726zM62.103 14.778v-4.4h-4.548v4.4H54.73V3.828h2.824v4.087h4.548V3.827h2.824v10.95h-2.823zM67.986 9.31c0-3.332 2.512-5.664 5.86-5.664 3.35 0 5.846 2.332 5.846 5.665s-2.496 5.665-5.845 5.665c-3.35 0-5.86-2.33-5.86-5.664zm8.833 0c0-1.79-1.167-3.168-2.973-3.168-1.822 0-2.988 1.38-2.988 3.17 0 1.772 1.165 3.168 2.987 3.168 1.806 0 2.972-1.397 2.972-3.17zM90.14 14.778V6.29h-4.548v8.488h-2.824V3.828h10.196v10.95H90.14z"/>
</svg>
