<svg xmlns="http://www.w3.org/2000/svg" viewBox="0 0 138.41 27.719">
	<path d="M21.462 20.345c-.077.635-.858.532-1.317.586-4.157.02-8.312.003-12.468.01v-4.325c3.953-.006 7.908 0 11.86-.005.586-.01 1.168.05 1.743.146.438 1.128.243 2.408.18 3.59M19.124 6.283c.717-.006 1.432.062 2.14.18.218 1.188.22 2.428.016 3.615-.51.094-1.017.182-1.532.177-4.024-.005-8.047-.01-12.068.002-.006-1.324 0-2.648-.004-3.97 3.816-.01 7.63 0 11.446-.007m9.453 9.762c-.363-1.04-1.103-1.888-1.948-2.568.687-.565 1.338-1.217 1.685-2.05.663-1.485.362-3.145.432-4.717.056-1.685-.12-3.527-1.25-4.867C26.312.48 24.427.088 22.706 0H.85C.44.118.115.41 0 .82v26.14c.216.595.826.807 1.415.75 6.52-.006 13.04 0 19.56 0 1.827-.06 3.74-.25 5.35-1.198 1.08-.618 1.93-1.63 2.32-2.815.395-1.136.296-2.353.302-3.537-.012-1.376.127-2.804-.372-4.115M40.967 0h19.198c1.572.08 3.257.25 4.56 1.222 1.152.874 1.716 2.297 1.9 3.695.29 2.294.125 4.612.164 6.917-2.614.008-5.23-.002-7.843.002 0-1.708.015-3.422-.007-5.13-5.62-.036-11.242-.003-16.865-.016-.002 1.716.005 3.435-.002 5.154-2.608-.018-5.216 0-7.825-.01.042-2.18-.082-4.37.103-6.548.186-1.49.63-3.113 1.893-4.055C37.606.257 39.34.07 40.968 0M93.337 11.312c-.425.148-.867.25-1.32.235-3.995-.002-7.992-.006-11.99 0-.132-1.197-.037-2.4-.07-3.602.01-.46.01-.916.01-1.375 4.01-.014 8.02-.002 12.033-.005.448.04 1.002-.044 1.342.324.116 1.466.098 2.95-.005 4.42m9.8 14.405c-3.017-2.54-6.004-5.126-9.045-7.644 2.05-.045 4.444-.272 5.804-2.014 1.535-2.042 1.05-4.72 1.126-7.096-.067-2.23.345-4.68-.897-6.677C99.023.496 96.73.09 94.797 0h-21.66c-.68.118-.955.805-.91 1.426-.006 8.208-.003 16.415 0 24.622-.007.61.07 1.533.85 1.608 1.828.118 3.67.02 5.5.05.588.058 1.34-.192 1.36-.89.096-2.92-.07-5.85.083-8.77 1.29.025 2.582-.036 3.873.023.474.24.802.704 1.193 1.058 2.792 2.708 5.597 5.403 8.374 8.128.293.352.74.464 1.185.447 2.442.015 4.886-.006 7.33.007.493-.014 1.115.04 1.44-.42.385-.487.212-1.225-.277-1.575M107.292 0h6.452c.413.27.725.693.674 1.21.006 2.77 0 5.54 0 8.31 3.36-2.576 6.682-5.202 10.03-7.796.766-.573 1.48-1.227 2.3-1.723h8.98c.785.344.95 1.487.202 1.966-3.28 2.427-6.585 4.826-9.868 7.25-1.742 1.31-3.548 2.532-5.24 3.905 5.65 4.102 11.247 8.277 16.892 12.388.286.198.53.453.696.765v.76c-.25.33-.57.668-1.023.62-3.17-.01-6.342.056-9.507-.032-1.072-.566-1.956-1.436-2.942-2.136-3.5-2.663-7.01-5.312-10.504-7.985-.04 2.988.004 5.977-.02 8.966.055.602-.392 1.23-1.036 1.186-1.765.027-3.53-.005-5.296.012-.442-.012-.973.047-1.283-.34-.283-.277-.263-.697-.27-1.06.006-8.35 0-16.7.003-25.05-.052-.535.256-1.027.76-1.213M34.328 22.18c-.144-1.99-.05-3.985-.078-5.98 2.604 0 5.208.005 7.81-.005.03 1.53.017 3.058.01 4.59 5.622 0 11.247.01 16.872-.004.01-1.527.012-3.053.008-4.578 2.592 0 5.19-.005 7.78 0 .124 1.446.04 2.9.065 4.347-.076 1.833-.176 3.864-1.416 5.336-1.295 1.525-3.45 1.732-5.32 1.815-5.43.016-10.856.004-16.285.01-1.624-.013-3.26.06-4.87-.194-1.173-.227-2.404-.607-3.223-1.532-.907-1.047-1.21-2.464-1.353-3.803"/>
</svg>
