<svg xmlns="http://www.w3.org/2000/svg" viewBox="0 0 612 131.993">
	<path d="M166.657 53.14V24.02h39.623v5.04h-24.337v6.832h13.407v5.04h-13.407v7.172h24.337v5.04h-39.623zM326.607 53.566c-8.553 0-15.51-1.387-20.875-4.16-5.364-2.772-8.047-6.378-8.047-10.815s2.816-8.045 8.45-10.825 12.93-4.17 21.895-4.17c2.847 0 5.51.177 7.99.53 2.483.354 5.643 1.002 9.485 1.945v5.636c-3.04-.98-5.684-1.668-7.938-2.06s-4.724-.588-7.41-.588c-5.757 0-10.056.79-12.9 2.367-2.847 1.578-4.27 3.967-4.27 7.165 0 3.185 1.105 5.566 3.312 7.144 2.206 1.578 5.536 2.367 9.984 2.367 2.367-.013 4.526-.216 6.48-.604l-.085-5.03v-5.038h13.306v12.624c-7.405 3.088-12.075 3.514-19.38 3.514zM442.66 24.02h15.286v29.12H442.66V24.02zM586.5 30.767c-2.86-.736-5.255-1.247-7.183-1.534-1.93-.285-3.985-.43-6.17-.43-2.154 0-3.77.156-4.846.47-1.075.31-1.613.778-1.613 1.4 0 .596.608 1.247 1.825 1.952 1.188.693 3.565 1.787 7.13 3.283 5.107 2.12 8.56 3.854 10.36 5.2 1.76 1.33 2.64 2.836 2.64 4.513 0 2.22-1.922 4.1-5.764 5.638-3.843 1.54-8.535 2.31-14.075 2.31-2.307 0-4.58-.16-6.822-.476-2.24-.318-5.172-.9-8.79-1.745V45.2c2.855 1.053 5.365 1.8 7.53 2.24 2.167.44 4.39.662 6.67.662 2.083 0 3.646-.204 4.69-.615 1.043-.41 1.564-1.026 1.564-1.848 0-.57-.576-1.19-1.728-1.858-1.126-.667-3.395-1.712-6.805-3.132-5.114-2.135-8.573-3.868-10.374-5.2-1.762-1.33-2.643-2.834-2.643-4.513 0-2.052 1.86-3.788 5.582-5.21 3.72-1.422 8.276-2.133 13.665-2.133 2.533 0 4.867.135 7 .403 2.134.268 4.854.76 8.157 1.476v5.294zM38.01 104.295H24.936v-29.12H37.92l14.01 12.31 13.963-12.31h12.983v29.12H65.804V85.79h-.002l-12.59 11.075h-2.569L38.014 85.77h-.005v18.525zM166.657 104.295v-29.12h39.623v5.04h-24.337v6.83h13.407v5.04h-13.407v7.173h24.337v5.04h-39.623zM297.686 75.176h20.764c8.363 0 15.147 1.35 20.356 4.048 5.206 2.7 7.81 6.207 7.81 10.522 0 4.314-2.523 7.818-7.57 10.51-5.046 2.693-11.607 4.04-19.683 4.04h-21.677v-29.12zm15.286 23.995h4.565c4.614 0 8.064-.78 10.356-2.345 2.29-1.563 3.438-3.923 3.438-7.08 0-3.17-1.22-5.536-3.652-7.1-2.437-1.564-6.12-2.346-11.053-2.346h-3.653v18.87zM442.66 75.176h15.286v29.12H442.66v-29.12zM58.363 23.594H42.565L24.938 53.14h13.866l11.572-21.362h.017l.097-.19h.042l2.165 4.19 9.54 17.362h13.754M581.77 74.75h-15.8l-17.627 29.545h13.867l11.57-21.36h.02l.096-.19h.042l2.163 4.185 9.545 17.365h13.75"/>
</svg>
