<svg xmlns="http://www.w3.org/2000/svg" viewBox="0 0 199.935 37.367">
	<path d="M49.19 31.85v-1.076h150.716v2.023H49.19v-.946zM64.282 23.26c-.336.15-.695.284-1.08.4-.385.12-.822.214-1.316.284-.494.07-1.067.1-1.716.1-1.263 0-2.294-.235-3.094-.707-.797-.473-1.425-1.127-1.877-1.953-.455-.828-.768-1.804-.935-2.93-.166-1.123-.25-2.348-.25-3.67 0-1.025.047-2.067.147-3.122.097-1.055.334-2.002.71-2.84.375-.838.927-1.526 1.658-2.057.73-.535 1.726-.796 2.987-.796 1.147 0 2.135.306 2.974.927.84.622 1.36 1.564 1.557 2.827h1.3V5.61c-.375-.176-.813-.33-1.316-.46-.5-.128-1.03-.226-1.583-.295-.55-.068-1.096-.123-1.628-.163-.533-.038-1.015-.057-1.45-.057-1.815 0-3.363.246-4.645.74-1.283.492-2.333 1.207-3.154 2.144-.818.935-1.42 2.08-1.803 3.432-.385 1.352-.577 2.887-.577 4.6 0 1.62.192 3.068.577 4.352.383 1.285.977 2.37 1.773 3.27.802.897 1.812 1.582 3.036 2.056 1.223.474 2.683.71 4.38.71.85 0 1.628-.058 2.336-.178.712-.117 1.358-.27 1.94-.46.582-.187 1.1-.39 1.554-.605.454-.215.848-.422 1.183-.62l-.654-1.27c-.352.154-.7.31-1.034.454m17.948-9.526c-.72-.502-1.66-.868-2.81-1.097-1.154-.225-2.56-.337-4.22-.337h-1.716V7.386c0-.534.108-.87.328-1.006.218-.14.67-.208 1.362-.208h2.486c.766 0 1.394.03 1.877.09.483.06.885.198 1.2.414.315.216.57.543.77.978.197.433.393 1.012.59 1.743h1.095V4.9H67.926v.665c.08.02.163.06.38.117.22.06.385.152.504.268.12.117.192.286.22.5.03.214.045.49.046.83V23.12c0 .34-.016.617-.045.83-.028.216-.1.382-.22.5s-.288.21-.504.267c-.216.06-.3.1-.382.12v.663h7.75c1.065 0 2.116-.06 3.15-.18 1.038-.114 1.962-.408 2.768-.872.813-.462 1.46-1.155 1.955-2.07.493-.92.742-2.177.742-3.775 0-1.144-.165-2.116-.49-2.914-.328-.798-.85-1.452-1.57-1.952M79.3 21.71c-.226.71-.526 1.25-.9 1.628-.378.372-.808.617-1.29.722-.483.11-.98.165-1.494.165-.495 0-.88-.034-1.154-.102-.276-.073-.488-.185-.635-.343-.147-.156-.243-.364-.283-.62-.04-.257-.06-.584-.06-.977V13.57h1.778c1.597 0 2.727.41 3.39 1.228.658.82.99 2.157.99 4.01 0 1.226-.116 2.19-.34 2.9m20.327.92c-.145.473-.36.828-.635 1.063-.276.238-.666.386-1.17.445-.5.058-1.2.09-2.085.09-.83 0-1.476-.032-1.94-.09-.463-.06-.813-.167-1.05-.326-.236-.157-.385-.39-.443-.694-.06-.307-.088-.697-.088-1.17v-6.482H95c.237 0 .516.01.844.03.325.02.658.047 1.002.09.348.04.678.102.995.192.316.09.584.203.8.34V13.48c-.216.14-.484.248-.8.326-.316.082-.646.145-.994.193-.344.05-.677.08-1.002.09-.328.01-.607.016-.845.016h-2.78V7.27c0-.456.064-.752.19-.89.127-.14.4-.207.814-.207h2.22c.77 0 1.393.03 1.88.09.482.06.882.197 1.196.414.316.216.572.542.77.977.2.434.395 1.013.592 1.744h1.097V4.902H86.683v.663c.082.02.166.06.382.118.216.06.385.15.504.267.12.118.194.287.224.502.027.217.043.505.043.86v15.776c0 .356-.016.64-.043.86-.03.216-.105.382-.223.5-.12.12-.288.21-.504.267-.215.06-.3.1-.382.12v.663h14.767v-4.794h-1.36c-.16.808-.31 1.45-.46 1.924m17.875-16.794c-.7-.405-1.506-.664-2.413-.77-.908-.11-1.845-.163-2.81-.163h-8.137v.665c.08.022.165.06.382.118.218.06.385.15.504.267.12.118.19.286.224.5.027.22.043.506.043.86V23.09c0 .356-.016.64-.043.86-.033.216-.105.382-.223.5-.118.118-.285.21-.503.267-.217.06-.3.1-.382.12v.663h6.744v-.664c-.084-.02-.168-.058-.383-.12-.218-.055-.386-.148-.503-.266-.12-.118-.194-.284-.225-.5-.03-.22-.043-.504-.043-.86V17.33h2.042c1.065 0 2.08-.08 3.047-.237.964-.16 1.82-.472 2.56-.933.738-.465 1.324-1.12 1.76-1.97.435-.846.652-1.97.652-3.37 0-1.342-.21-2.41-.62-3.197-.418-.788-.976-1.384-1.675-1.79m-3.046 8.818c-.506.938-1.39 1.406-2.65 1.406h-2.073v-8.76c0-.195.015-.368.042-.517.03-.15.1-.265.206-.356.11-.09.28-.153.505-.194.23-.038.54-.057.932-.057.533 0 1.032.07 1.497.207.46.138.864.38 1.21.724.345.35.614.806.8 1.377.187.573.28 1.294.28 2.16 0 1.74-.25 3.073-.75 4.01m21.687-.916c-.718-.5-1.657-.868-2.81-1.096-1.156-.225-2.562-.338-4.217-.338h-1.716V7.386c0-.533.106-.868.325-1.006.215-.14.67-.207 1.36-.207h2.484c.77 0 1.397.03 1.88.09.486.06.882.197 1.198.414.318.216.573.542.772.977.195.434.393 1.013.59 1.744h1.096V4.902H121.842v.663c.082.022.165.06.382.118.217.06.385.15.503.267.12.118.194.287.224.502.03.217.044.505.044.86v15.776c0 .357-.014.642-.043.86-.03.217-.103.383-.223.5-.118.12-.286.212-.503.268-.217.06-.3.098-.382.12v.662h7.75c1.065 0 2.117-.06 3.154-.18 1.035-.113 1.956-.407 2.768-.87.806-.463 1.457-1.156 1.95-2.07.493-.92.74-2.178.74-3.776 0-1.145-.163-2.117-.488-2.915-.325-.8-.85-1.452-1.57-1.952m-2.93 7.975c-.225.71-.527 1.252-.9 1.628-.376.373-.804.618-1.29.723-.48.11-.98.166-1.492.166-.494 0-.878-.034-1.154-.103-.276-.072-.49-.185-.636-.342-.148-.155-.242-.363-.283-.618-.036-.26-.056-.585-.056-.98v-8.61h1.773c1.598 0 2.73.41 3.39 1.226.658.82.993 2.158.993 4.012 0 1.225-.115 2.19-.343 2.9m43.665-16.808h-5.561v.664c.08.02.166.06.384.117.216.06.383.152.502.268.12.118.193.287.223.502.03.218.045.505.045.86v6.585h-7.963V7.312c0-.355.015-.642.044-.86.03-.215.104-.384.22-.5.123-.117.29-.21.508-.27.217-.056.3-.097.38-.116v-.664h-6.714v.664c.082.02.167.06.384.117.215.06.383.152.502.268.12.118.193.287.224.502.027.21.042.484.042.825v15.85c0 .335-.015.61-.042.82-.03.218-.104.384-.224.5-.12.12-.287.213-.502.27-.217.06-.302.098-.384.118v.663h6.714v-.663c-.08-.02-.163-.058-.38-.12-.22-.055-.385-.148-.507-.267-.117-.117-.19-.283-.22-.5-.03-.218-.045-.503-.045-.86v-4.115.002-3.718h7.963v7.83c0 .357-.016.642-.046.86-.03.217-.105.383-.224.5-.12.12-.286.212-.502.268-.217.062-.303.1-.383.12v.663h6.715v-.664c-.08-.02-.165-.057-.383-.12-.217-.055-.383-.147-.503-.266-.12-.118-.193-.284-.223-.5-.028-.22-.043-.504-.043-.86v-4.115l-.03.092v-7.728l.028.087V7.312c0-.355.017-.643.045-.86.03-.215.104-.384.222-.502.12-.116.285-.207.502-.267.218-.058.302-.1.383-.118v-.663h-1.153zm-20.892 15.98l-4.708-13.495c-.216-.61-.357-1.11-.427-1.495s-.124-.716-.165-.99h-5.885v.664c.08.02.165.06.382.117.217.06.385.152.502.268.12.118.194.287.224.502.017.124.028.28.035.45-.018.475-.1.96-.26 1.343l-3.283 8.137c-.61 1.523-1.136 2.793-1.568 3.818-.438 1.027-.804 1.885-1.113 2.573-.305.693-.572 1.245-.798 1.66-.228.414-.43.772-.61 1.065h3.73c.04-.493.195-1.336.46-2.53.266-1.192.744-2.837 1.436-4.93h6.54l.886 2.638c.394 1.18.712 2.18.947 2.985.237.812.374 1.422.412 1.838h5.24c-.217-.416-.486-.972-.813-1.672-.326-.7-.718-1.68-1.17-2.945m-11.57-4.2l2.84-8.318 2.782 8.318h-5.623zm53.385 6.628c-.693-.75-1.255-1.372-1.69-1.867-.63-.705-1.22-1.378-1.773-2.01-.553-.628-1.076-1.252-1.568-1.864-.495-.61-.964-1.23-1.407-1.846-.443-.624-.885-1.29-1.317-2.002l.325-.413c.492-.632 1.076-1.355 1.746-2.174.67-.818 1.362-1.628 2.074-2.425.71-.8 1.418-1.538 2.128-2.22.713-.682 1.353-1.2 1.925-1.553v-.03h-4.823c-.158.414-.398.92-.728 1.523-.32.602-.705 1.247-1.135 1.937-.435.69-.888 1.41-1.363 2.148-.472.738-.945 1.446-1.418 2.116-.475.67-.916 1.29-1.32 1.865-.404.57-.744 1.032-1.02 1.39.495.67.94 1.282 1.346 1.835.404.552.79 1.077 1.154 1.582.365.504.72.998 1.066 1.48.345.485.705.993 1.08 1.525.394.554.745 1.095 1.053 1.626.302.534.584 1.057.842 1.57l6.953.06c-.733-.755-1.44-1.5-2.13-2.25m-11.45 1.14c-.12-.117-.194-.283-.224-.5-.028-.218-.044-.503-.044-.86V7.312c0-.355.016-.642.045-.86.03-.215.105-.384.224-.5.117-.117.286-.21.503-.27.215-.056.3-.097.382-.116v-.664h-6.716v.664c.082.02.165.06.38.117.22.06.386.152.505.268.116.118.192.287.22.502.03.218.045.505.045.86v15.776c0 .357-.015.642-.044.86-.028.217-.104.383-.22.5-.12.12-.286.212-.505.268-.216.06-.3.098-.38.12v.662h6.714v-.663c-.083-.02-.165-.058-.383-.12-.217-.056-.386-.148-.503-.267M11.82 8.724L5.064 4.84c-.48.527-.932 1.085-1.354 1.664l8.11 4.666L29.262 1.14C28.532.71 27.772.33 26.99 0L11.82 8.724zm0 4.893L2.558 8.29c-.35.615-.67 1.247-.953 1.9L11.82 16.06 32.937 3.917c-.542-.52-1.113-1.008-1.71-1.463L11.82 13.618zm0 4.89L.858 12.205c-.15.48-.278.972-.39 1.467-.05.224-.096.448-.138.675l11.49 6.61 23.872-13.73c-.235-.356-.482-.705-.738-1.043-.112-.148-.23-.295-.346-.44l-.19-.233L11.82 18.51zm0 4.895L.045 16.63c-.024.34-.038.68-.043 1.026-.017 1.27.092 2.544.323 3.798.418 2.273 1.217 4.38 2.324 6.27 1.4 2.407 3.295 4.46 5.524 6.047 1.5 1.07 3.158 1.925 4.9 2.532.763.264 1.55.484 2.35.657 1.125.236 2.29.375 3.478.407h1.083c.635-.017 1.275-.067 1.918-.148 2.715-.35 5.35-1.266 7.69-2.694 2.256-1.382 4.19-3.202 5.7-5.322 1.587-2.23 2.704-4.79 3.242-7.522.07-.35.13-.705.18-1.062.12-.88.184-1.78.184-2.694 0-.17-.003-.34-.007-.51-.022-.8-.095-1.607-.22-2.417-.317-2.073-.962-4.08-1.914-5.94L11.82 23.402z"/>
</svg>
