<svg xmlns="http://www.w3.org/2000/svg" viewBox="0 0 34.765 35.114">
	<path d="M17.685 10.62c1.666-.17 2.756-1.763 3.563-2.978.715-1.078 2.057-2.584 1.63-4.045C22.492 2.264 19.447 1 18.254.725 16.73.387 14.133.452 12 1.565 8.107 3.6 5.744 7.053 3.566 11.475 1.557 15.56-.222 19.675.735 24.43c.982 4.9 4.086 7.06 7.492 8.078.072.023.24-.088.324-.088 1.606-.096 2.278-1.803 2.812-3.58.463-1.547 1.078-3.28.26-4.81-.916-1.722-3.56-1.07-4.604-2.757-1.352-2.217.256-5.197 1.145-7.04.873-1.817 2.01-4.786 4.416-5.3 2.122-.46 2.923 1.91 5.105 1.688z"/>
	<path d="M33.952 17.762c-.56-2.42-1.744-4.584-3.408-6.34l.033.002.078-2.824-6.684-.186 2.917 6.127 1.88-.894c1.183 1.34 2.02 2.96 2.433 4.75.654 2.842.164 5.768-1.38 8.238-2.675 4.277-7.886 6.162-12.665 4.586l-.885 2.684c1.424.47 2.877.693 4.31.693 4.634 0 9.064-2.355 11.634-6.465 1.945-3.11 2.562-6.794 1.738-10.37z"/>
</svg>
