<svg xmlns="http://www.w3.org/2000/svg" viewBox="0 0 102.284 87.324">
  <path fill="#ff48c9" d="M39.574 17.204c.035.005.07.017.107.02.15.034.3.056.455.095.314.074.63.17.946.283.24.078.47.16.706.25.175.063.344.128.513.186 2.076.705 3.906 2.213 5.463 3.21.036.025.066.05.103.074 1.06.686 2.03 1.393 2.94 2.13 2.928 2.356 5.274 4.976 8.125 7.876 8.356 8.488 15.356 19.108 21.793 31.875 1.725 3.42 3.41 6.99 5.07 10.72 1.855 4.175 3.68 8.54 5.493 13.105-1.118-4.514-2.365-9.03-3.72-13.504-1.192-3.94-2.472-7.845-3.84-11.683-6.83-19.183-15.768-36.648-26.25-48.21-.483-.534-.97-1.067-1.46-1.575C49.993 5.818 43.486 1.538 36.59 0c0 0 .69 2.525.786 4.275.033.286.068.63.1.983.17 2.107.252 5.048.312 6.73.114 3.32-.445 4.587-.215 4.943.662.04 1.327.137 1.987.273h.013"/>
  <path fill="#4c58dd" d="M86.863 61.396c-.023.027-.054.045-.08.07-.12.1-.23.206-.353.3-.25.203-.52.39-.808.575-.202.14-.416.273-.626.4-.157.1-.315.2-.46.295-1.836 1.208-4.15 1.727-5.892 2.342-.04.015-.08.028-.122.04-1.187.417-2.342.747-3.482 1.017-3.66.863-7.17 1.108-11.21 1.585-11.826 1.387-24.506.4-38.535-2.35-3.76-.735-7.614-1.594-11.58-2.575-4.433-1.094-9-2.33-13.715-3.7 4.25 1.887 8.58 3.674 12.944 5.35 3.842 1.472 7.712 2.857 11.582 4.132 19.338 6.375 38.615 10.034 54.176 8.85.718-.056 1.438-.113 2.142-.187 8.622-.934 15.995-3.445 21.44-7.945 0 0-2.418-1.005-3.863-2.002-.242-.153-.535-.333-.834-.53-1.766-1.153-4.14-2.893-5.503-3.878-2.692-1.944-3.35-3.162-3.776-3.202-.437.502-.916.966-1.43 1.403-.002 0-.01.007-.012.01"/>
  <path fill="#00f7c8" d="M27.363 78.528c-.007-.037-.01-.077-.02-.112-.017-.15-.052-.3-.07-.453-.035-.32-.055-.654-.062-.99-.01-.248-.01-.495-.01-.747 0-.18 0-.368-.005-.547-.06-2.195.713-4.433 1.107-6.24.01-.043.023-.08.03-.126.272-1.227.6-2.385.968-3.495 1.19-3.57 2.83-6.68 4.55-10.366 5.04-10.79 12.55-21.054 22.27-31.54 2.606-2.81 5.36-5.64 8.28-8.495 3.26-3.196 6.718-6.427 10.36-9.717-3.837 2.62-7.636 5.365-11.356 8.195-3.275 2.49-6.487 5.054-9.606 7.673C38.2 34.667 24.948 49.135 17.773 62.99c-.33.64-.66 1.283-.965 1.92-3.746 7.824-5.487 15.417-4.525 22.414 0 0 2.125-1.527 3.734-2.23.257-.13.566-.284.886-.434 1.91-.894 4.64-1.997 6.195-2.637 3.074-1.27 4.453-1.185 4.71-1.53-.197-.633-.336-1.288-.44-1.953l-.002-.012"/>
</svg>
