<svg xmlns="http://www.w3.org/2000/svg" viewBox="0 0 307.116 87.325">
  <path fill="#ff48c9" d="M39.575 17.204c.035.005.07.017.107.02.15.034.3.056.454.095.314.074.63.17.946.283.238.078.47.16.705.25.175.063.344.128.513.186 2.077.705 3.907 2.213 5.464 3.21.036.025.066.05.103.074 1.06.686 2.03 1.393 2.94 2.13 2.928 2.356 5.274 4.976 8.125 7.876 8.355 8.488 15.355 19.108 21.792 31.875 1.725 3.42 3.41 6.99 5.07 10.72 1.855 4.175 3.68 8.54 5.493 13.105-1.118-4.514-2.365-9.03-3.72-13.504-1.192-3.94-2.472-7.845-3.84-11.683-6.83-19.183-15.768-36.648-26.25-48.21-.483-.534-.97-1.067-1.46-1.575C49.994 5.818 43.487 1.538 36.59 0c0 0 .69 2.525.787 4.275.033.286.068.63.1.983.17 2.107.252 5.048.312 6.73.113 3.32-.446 4.587-.216 4.943.662.04 1.327.137 1.987.273h.014"/>
  <path fill="#4c58dd" d="M86.864 61.396c-.023.027-.054.045-.08.07-.12.1-.23.206-.353.3-.25.203-.52.39-.807.575-.202.14-.416.273-.626.4-.157.1-.315.2-.46.295-1.836 1.208-4.15 1.727-5.892 2.342-.04.015-.08.028-.122.04-1.187.417-2.342.747-3.482 1.017-3.66.863-7.17 1.108-11.21 1.585-11.825 1.387-24.505.4-38.534-2.35-3.76-.735-7.614-1.594-11.58-2.575-4.433-1.094-9-2.33-13.715-3.7 4.25 1.887 8.58 3.674 12.945 5.35 3.842 1.472 7.712 2.857 11.582 4.132 19.338 6.375 38.615 10.034 54.176 8.85.718-.056 1.438-.113 2.142-.187 8.622-.934 15.995-3.445 21.44-7.945 0 0-2.418-1.005-3.863-2.002-.243-.153-.536-.333-.835-.53-1.766-1.153-4.14-2.893-5.503-3.878-2.692-1.944-3.35-3.162-3.776-3.202-.437.502-.916.966-1.43 1.403-.002 0-.01.007-.012.01"/>
  <path fill="#00f7c8" d="M27.364 78.528c-.007-.037-.01-.077-.02-.112-.017-.15-.052-.3-.07-.453-.035-.32-.055-.654-.062-.99-.01-.248-.012-.495-.01-.747 0-.18 0-.368-.006-.547-.06-2.195.713-4.433 1.107-6.24.01-.043.023-.08.03-.126.272-1.227.6-2.385.968-3.495 1.19-3.57 2.83-6.68 4.55-10.366 5.04-10.79 12.55-21.054 22.27-31.54 2.607-2.81 5.362-5.64 8.282-8.495 3.26-3.196 6.717-6.427 10.36-9.717-3.838 2.62-7.637 5.365-11.357 8.195-3.275 2.49-6.487 5.054-9.606 7.673C38.2 34.667 24.95 49.135 17.773 62.99c-.33.64-.66 1.283-.965 1.92-3.747 7.824-5.488 15.417-4.526 22.414 0 0 2.125-1.527 3.734-2.23.257-.13.566-.284.886-.434 1.91-.894 4.64-1.997 6.195-2.637 3.073-1.27 4.452-1.185 4.71-1.53-.198-.633-.337-1.288-.44-1.953l-.003-.012"/>
  <path fill="#4c58dd" d="M182.445 26.5c-1.368-.003-2.58.3-3.638.907-1.058.606-1.588 1.432-1.59 2.47l-.027 11.516c0 1.04.48 1.854 1.442 2.435.97.584 2.224.88 3.773.88l.04-18.21zm-13.21 20.187c-1.933-1.165-3.34-2.744-4.23-4.74-.77-1.76-1.15-3.843-1.146-6.25.01-4.136 1.324-7.364 3.946-9.68 3.103-2.728 7.985-4.084 14.65-4.07l17.092.04-.08 34.274-17.093-.036.016-6.696-4.522 6.686-16.335-.04 7.7-9.486zm52.142-24.32v14.147h5.4V22.367h17.004v34.186h-17.003V41.647h-5.4v14.906h-17.004V22.367h17.005zm43.693 0V48.34c0 1.19.333 2.098 1.002 2.724.67.623 1.465.936 2.39.936.92 0 1.7-.305 2.34-.915.64-.61.96-1.523.96-2.746V22.365h5.937V48.34c0 2.352-1.015 4.257-3.037 5.714-2.53 1.844-6.486 2.766-11.87 2.766-5.387 0-9.343-.937-11.872-2.812-1.965-1.458-2.945-3.346-2.945-5.67V22.37h17.093zm40.79 0v4.462h-7.498v9.594h7.498v4.508h-7.498V52.09h8.435v4.463h-25.53V22.367h24.593zm-180.03 5.49c-2.74-.895-5.165-1.34-7.276-1.34-.837 0-1.675.112-2.525.335-.85.224-1.535.707-2.054 1.45-.518.744-.78 1.74-.78 2.99V48.34c0 2.5.92 3.75 2.765 3.75 1.043 0 2.644-.133 4.8-.403 2.16-.265 3.845-.623 5.07-1.07v5.222c-1.61.383-3.256.69-4.937.912-1.68.223-3.428.335-5.244.335-5.475 0-10.116-1.725-13.924-5.18-3.808-3.45-5.712-7.6-5.712-12.447 0-4.88 1.904-9.017 5.712-12.407 3.808-3.39 8.45-5.087 13.923-5.087h1.52c1.99 0 3.62.087 4.885.266 1.264.18 2.52.58 3.773 1.206v4.42z"/>
  <path fill="#00f7c8" d="M146.937 22.367V48.34c0 1.19.335 2.098 1 2.724.674.623 1.47.936 2.393.936.918 0 1.702-.305 2.34-.915.64-.61.96-1.523.96-2.746V22.365h5.937V48.34c0 2.352-1.014 4.257-3.036 5.714-2.526 1.844-6.484 2.766-11.87 2.766-5.386 0-9.344-.937-11.87-2.812-1.964-1.458-2.946-3.346-2.946-5.67V22.37h17.094z"/>
  <path fill="#4c58dd" d="M172.18 66.908v.037l-.055-.037c-.058.01-.13.018-.225.018-.18.013-.403.02-.676.02-.478 0-.717-.062-.717-.18 0-.063.06-.138.184-.227.358-.273.663-.63.92-1.07.26-.44.4-.84.43-1.2 0-.09.01-.168.028-.236l.023-.067c.005-.018.007-.035.007-.05 0-.087-.09-.13-.268-.13-.364 0-.928.266-1.688.795-.48.34-.928.742-1.348 1.207-.422.467-.752.933-.985 1.4-.236.465-.353.885-.353 1.257 0 .363.135.546.406.546.263 0 .926-.296 1.988-.886.478-.278 1.254-.678 2.334-1.2m-.715 2.01l-.38.19c-.033.02-.076.045-.138.076-.058.034-.138.074-.23.12-1.62.855-2.895 1.452-3.818 1.8-.925.346-1.727.52-2.413.52-.76 0-1.37-.186-1.834-.56-.464-.37-.696-.87-.696-1.49 0-.778.325-1.578.977-2.408.653-.828 1.513-1.588 2.58-2.282 1.07-.693 2.24-1.25 3.517-1.666 1.276-.42 2.507-.63 3.7-.63 1.17 0 2.063.133 2.678.406.614.27.923.68.923 1.22 0 .454-.27 1.014-.8 1.68.38.02.663.1.843.242.177.14.265.364.265.665 0 .494-.15 1.18-.45 2.06-.3.876-.667 1.69-1.098 2.43-.523.94-1.274 1.756-2.25 2.45-.74.523-1.658.97-2.755 1.346-1.095.377-2.042.562-2.827.562-.656 0-1.243-.177-1.757-.53-.515-.353-.774-.75-.774-1.19 0-.295.112-.604.34-.92.222-.32.514-.593.87-.82.732-.498 1.804-.968 3.22-1.415.262-.09.464-.133.604-.133.057 0 .108.015.155.045.05.034.07.068.07.106 0 .045-.056.13-.167.257-.28.32-.53.732-.746 1.234-.213.5-.32.936-.32 1.3 0 .43.096.644.295.644.103 0 .23-.08.387-.233.154-.154.292-.33.415-.524.795-1.36 1.305-2.62 1.528-3.78.027-.17.057-.425.09-.766m11.297-.35c.432-.195.762-.39.986-.586.496-.41.88-.88 1.154-1.41.216-.345.383-.73.506-1.16.12-.43.18-.83.18-1.2 0-.347-.106-.52-.32-.52-.3 0-.76.444-1.38 1.333-.364.536-.664 1.07-.89 1.6-.234.533-.348.99-.348 1.376 0 .13.038.322.113.567m.03.302c.103.38.47.567 1.097.567.704 0 1.617-.278 2.742-.834.654-.322 1.097-.48 1.32-.48.283 0 .544.05.79.15.246.1.366.205.366.312 0 .11-.137.262-.408.444-.496.333-1.07.66-1.716.978-.647.317-1.27.582-1.87.793-.602.21-1.2.38-1.8.5-.602.124-1.137.184-1.605.184-1.172 0-2.108-.226-2.812-.676-.703-.45-1.055-1.05-1.055-1.8 0-.57.187-1.22.557-1.94.37-.723.868-1.396 1.498-2.026.74-.74 1.65-1.353 2.728-1.845 1.33-.594 2.608-.89 3.825-.89.882 0 1.573.19 2.076.564.502.373.753.89.753 1.545 0 .507-.2 1.042-.598 1.594-.4.556-.988 1.088-1.766 1.598-.638.43-1.262.763-1.878 1-.614.242-1.15.362-1.61.362-.207 0-.417-.034-.63-.105m13.434-2.343l.848-.665c.857-.64 1.536-1.113 2.037-1.424.5-.314.95-.54 1.35-.677.398-.137.803-.207 1.21-.207.67 0 1.136.12 1.41.36.27.24.408.656.408 1.247 0 .244-.04.608-.114 1.086-.115.636-.17 1.235-.17 1.795 0 .63.047 1.14.14 1.534.07.24.164.478.297.716.09.226.137.38.137.463 0 .1-.054.18-.167.236-.29.17-.675.317-1.154.443-.48.125-.88.19-1.208.19-.536 0-1.02-.123-1.457-.37-.436-.246-.775-.586-1.014-1.022-.238-.433-.357-.925-.357-1.472 0-.367.055-.798.168-1.296l-.055-.036c-.405.3-.73.54-.98.718-.247.173-.48.34-.695.5-1.05.807-1.94 1.533-2.673 2.183-.282.25-.54.47-.774.66-.345.232-.74.35-1.18.35-.6 0-1.09-.153-1.464-.454-.373-.303-.56-.693-.56-1.172 0-.295.05-.656.154-1.084.103-.433.24-.89.416-1.38.172-.487.38-.988.618-1.504.24-.518.5-1.007.782-1.474.43-.776.953-1.38 1.572-1.815.422-.284.935-.425 1.536-.425.974 0 1.46.425 1.46 1.275 0 .624-.193 1.517-.58 2.68l.056.04zm14.293 2.82c.265.515.76.773 1.493.773.515 0 .995-.158 1.44-.468.446-.313.8-.734 1.068-1.265.268-.533.402-1.094.402-1.68 0-.464-.053-.87-.16-1.21-.107-.338-.23-.51-.362-.51-.09 0-.33.168-.716.502-.382.334-.77.72-1.152 1.162-.788.854-1.385 1.612-1.784 2.266-.105.17-.18.312-.23.427m1.07-4.03l.436-.552c.414-.487.796-.895 1.148-1.222.353-.324.663-.563.938-.717.273-.15.595-.273.97-.368.312-.083.652-.124 1.018-.124.71 0 1.346.143 1.894.426.55.284.97.69 1.268 1.22.295.527.444 1.135.444 1.822 0 .99-.33 1.94-.99 2.85-.664.91-1.53 1.647-2.604 2.207-1.073.56-2.182.84-3.327.84-.665 0-1.223-.092-1.668-.283-.45-.187-.857-.514-1.233-.975l-.095.16-.082.21c-.612 1.318-1.097 2.285-1.457 2.904-.36.62-.672 1.004-.935 1.14-.206.135-.447.2-.72.2-.532 0-.947-.176-1.25-.53-.3-.354-.45-.85-.45-1.483 0-.693.114-1.523.338-2.495.223-.97.536-1.96.935-2.968.4-1.008.84-1.923 1.328-2.75.32-.505.667-.944 1.052-1.323.382-.38.747-.65 1.093-.82.25-.1.523-.15.81-.15.43 0 .764.076 1 .235.23.16.346.386.346.676 0 .247-.038.52-.113.82-.056.292-.11.626-.152 1.005l.055.05zm18.568-3.313c1.394 0 2.092.11 2.092.33 0 .252-.31.387-.94.408-.76.03-1.466.174-2.125.434-.656.26-1.24.61-1.75 1.06-.51.445-.91.95-1.195 1.51-.288.56-.43 1.153-.43 1.775 0 .686.24 1.24.72 1.66.476.42 1.1.627 1.87.627.71 0 1.335-.245 1.87-.738.536-.49.8-1.064.8-1.72 0-.536-.166-1.04-.5-1.51-.33-.467-.815-.862-1.454-1.183-.272-.146-.407-.25-.407-.31 0-.09.193-.226.577-.408.43-.194.915-.36 1.448-.494.535-.132.985-.198 1.35-.198.423 0 .823.074 1.204.22.38.15.71.362 1.004.634.29.275.516.59.67.945.153.357.23.734.23 1.138 0 .67-.187 1.33-.562 1.98-.376.652-.866 1.18-1.476 1.582-.786.51-1.738.93-2.848 1.253-1.11.324-2.17.486-3.17.486-.977 0-1.945-.115-2.907-.34-.96-.227-1.722-.526-2.283-.897-.752-.506-1.128-1.22-1.128-2.146 0-.733.27-1.46.803-2.194.535-.73 1.257-1.394 2.172-1.99.915-.594 1.92-1.064 3.023-1.407 1.102-.344 2.217-.515 3.342-.515m15.174 5.354v-.55c-.48.284-.835.426-1.067.426-.133 0-.2-.045-.2-.132 0-.038.03-.118.086-.236.2-.378.294-.744.294-1.097 0-.51-.163-1.04-.492-1.587-.138-.284-.313-.424-.52-.424-.103 0-.188.03-.253.093-.31.24-.604.578-.887 1.016-.28.44-.512.914-.695 1.428-.182.515-.276.97-.276 1.366 0 .75.34 1.124 1.015 1.124.336 0 .787-.134 1.353-.4.57-.27 1.116-.61 1.64-1.025m.435-4.49l.142-.386c.29-.865.552-1.563.787-2.095.23-.532.475-.98.724-1.35.246-.37.49-.634.737-.8.394-.283 1.104-.424 2.124-.424.45 0 .786.015 1.007.048.22.032.395.087.528.17-.45.938-.76 1.642-.935 2.113-.174.466-.365 1.11-.573 1.93-.315 1.335-.475 2.54-.475 3.62 0 .71.088 1.45.26 2.216.174.767.455 1.617.852 2.555-.5.234-.973.43-1.428.597-.456.165-.887.292-1.295.387-.407.095-.766.14-1.075.14-.547 0-.93-.18-1.156-.537-.187-.295-.31-.535-.367-.714-.056-.18-.155-.677-.294-1.495-1.258.88-2.46 1.574-3.608 2.082-1.15.506-2.067.758-2.75.758-.788 0-1.432-.214-1.934-.647-.5-.43-.75-.985-.75-1.666 0-.61.192-1.29.582-2.036.39-.746.927-1.47 1.61-2.167.45-.46.912-.85 1.385-1.167.473-.32 1.01-.613 1.61-.885 1.088-.48 1.998-.718 2.73-.718.357 0 .875.156 1.56.473m11.905 5.763l-.058.188c0 .11-.02.262-.057.464-.036.31-.087.562-.153.757-.067.194-.167.358-.297.486-.13.13-.308.27-.535.415-.683.42-1.373.632-2.066.632-.562 0-.977-.138-1.245-.415-.27-.28-.403-.724-.403-1.342 0-.49.082-1.1.246-1.82.164-.722.365-1.37.6-1.94l.11-.248c0-.036.028-.116.084-.235.35-.86.67-1.494.957-1.905.29-.412.643-.745 1.057-.997.363-.194.78-.293 1.237-.293.667 0 1.07.27 1.21.814.13-.078.257-.165.38-.265.27-.22.482-.366.63-.44.152-.074.326-.11.522-.11.807 0 1.21.536 1.21 1.61 0 .582-.094 1.15-.282 1.7-.187.546-.425.994-.712 1.34-.286.347-.57.52-.85.52-.31 0-.465-.393-.465-1.18 0-.415-.034-.74-.104-.98-.07-.235-.18-.42-.33-.55-.283.35-.463 1.16-.55 2.42-.064.727-.113 1.19-.14 1.377m13.584-3.6l.183-.408c.243-.63.614-1.117 1.113-1.456.32-.215.686-.39 1.1-.53.41-.138.786-.208 1.124-.208.62 0 .93.177.93.53 0 .176-.085.45-.255.822-.168.372-.39.792-.67 1.26-.274.47-.597.983-.968 1.545-.374.562-.782 1.14-1.234 1.73-.817 1.122-1.643 2.07-2.477 2.844-.6.555-1.21 1.047-1.83 1.474-.62.43-1.27.814-1.95 1.15-.68.345-1.324.6-1.93.775-.606.172-1.16.26-1.668.26-.423 0-.633-.125-.633-.37 0-.195.065-.428.197-.698.133-.273.315-.526.55-.768.253-.226.574-.43.958-.605.49-.226 1.208-.485 2.156-.773-.565-.638-.993-1.14-1.283-1.513-.29-.374-.61-.835-.957-1.393-.77-1.226-1.156-2.34-1.156-3.342 0-.764.14-1.384.42-1.864.255-.41.717-.7 1.392-.87.545-.14 1.034-.215 1.465-.215.606 0 1.02.157 1.23.47.21.31.396 1.037.556 2.186.17 1.23.443 2.44.82 3.637.066.184.143.438.227.758h.057c.254-.373.53-.82.83-1.35.094-.15.42-.71.986-1.674.318-.58.555-1.05.718-1.406m15.013 1.57l-.268.06c-.675.124-1.165.186-1.465.186-.365 0-.547-.062-.547-.187 0-.047.074-.163.225-.35.524-.535.787-1.04.787-1.513 0-.27-.07-.515-.21-.742-.14-.223-.296-.334-.467-.334-.148 0-.378.105-.686.32-.872.636-1.563 1.287-2.075 1.956-.51.67-.767 1.264-.767 1.785 0 .346.105.633.317.863.212.225.476.338.795.338.27 0 .78-.196 1.525-.586.745-.39 1.58-.907 2.512-1.55l.376-.207-.054-.038zm-.846 2.165v.035l-.058-.037c-.87.685-1.67 1.248-2.398 1.686-.728.44-1.398.767-2.01.988-.615.22-1.18.33-1.695.33-1.05 0-1.92-.238-2.605-.71-.683-.473-1.025-1.07-1.025-1.794 0-.446.17-.976.506-1.59.336-.61.803-1.206 1.394-1.794.982-.957 2.22-1.77 3.712-2.438 1.537-.687 3.02-1.03 4.446-1.03 1.198 0 2.186.165 2.957.497.774.33 1.163.748 1.163 1.253 0 .37-.194.765-.578 1.18.505 0 .824.036.957.108.13.074.195.242.195.507 0-.024-.024.104-.072.39-.056.623-.083 1.207-.083 1.747 0 .285.004.497.016.642.007.144.028.313.056.5.03.19.056.342.084.453.075.296.198.59.366.88-.56.372-1.1.644-1.616.816-.52.174-1.042.26-1.577.26-1.443 0-2.166-.81-2.166-2.437 0-.188.006-.34.027-.445m15.208-1.406v-.55c-.48.284-.836.426-1.07.426-.133 0-.198-.045-.198-.132 0-.038.03-.118.087-.236.2-.378.296-.744.296-1.097 0-.51-.164-1.04-.492-1.587-.142-.284-.314-.424-.52-.424-.104 0-.186.03-.254.093-.31.24-.606.578-.887 1.016-.28.44-.514.914-.696 1.428-.184.515-.275.97-.275 1.366 0 .75.34 1.124 1.015 1.124.335 0 .79-.134 1.355-.4.57-.27 1.115-.61 1.64-1.025m.435-4.49l.14-.386c.29-.865.554-1.563.79-2.095.23-.532.476-.98.724-1.35.248-.37.494-.634.74-.8.392-.283 1.102-.424 2.122-.424.452 0 .788.015 1.008.048.22.032.395.087.528.17-.45.938-.762 1.642-.937 2.113-.172.466-.363 1.11-.57 1.93-.318 1.335-.476 2.54-.476 3.62 0 .71.088 1.45.26 2.216.173.767.455 1.617.85 2.555-.497.234-.97.43-1.426.597-.456.165-.888.292-1.295.387-.41.095-.766.14-1.075.14-.546 0-.93-.18-1.155-.537-.188-.295-.31-.535-.366-.714-.056-.18-.156-.677-.294-1.495-1.26.88-2.46 1.574-3.607 2.082-1.15.506-2.067.758-2.75.758-.79 0-1.433-.214-1.933-.647-.504-.43-.754-.985-.754-1.666 0-.61.193-1.29.58-2.036.392-.746.93-1.47 1.613-2.167.45-.46.913-.85 1.385-1.167.473-.32 1.01-.613 1.61-.885 1.09-.48 2-.718 2.73-.718.355 0 .876.156 1.56.473"/>
</svg>
