<svg xmlns="http://www.w3.org/2000/svg" viewBox="0 0 155 310">
  <path d="M5 165.105h33.98V305c0 2.76 2.24 5 5 5h57.617c2.762 0 5-2.24 5-5V165.763h39.064c2.54 0 4.678-1.906 4.968-4.43l5.934-51.5c.163-1.418-.286-2.837-1.234-3.9-.95-1.064-2.307-1.673-3.732-1.673H106.6V71.978c0-9.732 5.24-14.667 15.576-14.667h29.42c2.762 0 5-2.238 5-5V5.037c0-2.762-2.238-5-5-5H111.05c-.285-.014-.92-.037-1.856-.037-7.035 0-31.488 1.38-50.804 19.15-21.402 19.693-18.427 43.27-17.716 47.36v37.75H5c-2.762 0-5 2.24-5 5v50.845c0 2.762 2.238 5 5 5z"/>
</svg>
