<svg viewbox="0 0 1099.513 589.115" id="icon--error" class="icon icon--error">
    <path d="M200.587 498.854v-79.067H0v-58.76l5.703-9.624c9.948-16.783 20.552-34.947 22.965-39.34 1.283-2.333 5.316-9.258 8.962-15.388 7.195-12.096 18.997-32.225 34.536-58.902 15.608-26.796 23.51-40.31 32.577-55.72 8.706-14.79 21.645-36.91 37.25-63.677a4420.486 4420.486 0 0 1 15.603-26.533c3.647-6.13 7.936-13.53 9.53-16.45 1.597-2.918 5.894-10.32 9.552-16.45 10.318-17.293 24.38-41.418 27.22-46.697l2.567-4.776 42.163-.278 42.163-.277.27 165.31.268 165.31 35.82.28 35.82.28v81.664l-35.82.278-35.82.28-.272 78.802-.272 78.802h-90.197v-79.068zm0-244.63c0-51.854-.382-83.844-1.002-83.844-.898 0-12.795 20.118-12.795 21.637 0 .343-3.194 6.003-7.097 12.577-3.904 6.574-9.556 16.25-12.56 21.505-3.005 5.252-6.91 11.938-8.675 14.857-1.767 2.92-7.654 12.948-13.082 22.287-22.856 39.32-28.314 48.383-36.223 60.144-4.58 6.812-8.33 12.9-8.33 13.532 0 .805 14.857 1.146 49.882 1.146h49.882v-83.843zm328.529 334.278c-42.292-4.84-71.266-20.66-94.825-51.775-19.773-26.115-36.38-73.213-43.108-122.247-10.86-79.17-10.87-160.727-.032-238.202 3.216-22.986 6.894-38.75 14.625-62.678 8.89-27.518 18.604-46.597 32.806-64.436 20.274-25.464 43.254-39.28 77.655-46.682 14.38-3.095 48.085-3.346 62.613-.468 23.984 4.752 37.596 9.978 53.69 20.616 34.08 22.525 58.395 68.377 71.037 133.953 2.8 14.518 7.06 54.45 8.633 80.882 1.685 28.333.71 109.912-1.588 132.97-4.518 45.317-8.408 66.46-18.326 99.6-18.17 60.716-52.676 100.32-98.342 112.87-5.17 1.422-13.29 3.28-18.042 4.127-10.93 1.95-35.772 2.732-46.794 1.47zm34.34-85.82c17.826-5.55 30.813-20.8 38.323-45.01 10.71-34.524 14.292-62.205 15.992-123.602 1.68-60.66-.52-124.422-5.37-155.795-3.8-24.568-11.06-50.61-17.55-62.962-12.34-23.485-34.014-35.223-56.373-30.532-10.44 2.19-17.785 6.2-25.344 13.834-7.775 7.852-12.672 16.93-18.387 34.09-11.73 35.22-15.57 74.742-15.57 160.257 0 87.01 3.77 125.027 16.042 161.78 9.157 27.42 21.764 42.615 40.207 48.463 6.553 2.08 20.506 1.818 28.027-.522zm373.677-3.828v-79.067H737.607v-60.783l8.856-14.98c4.87-8.238 10.057-17.128 11.526-19.755 1.468-2.627 5.654-9.79 9.302-15.92 7.28-12.23 15.714-26.613 30.813-52.535 5.44-9.34 13.81-23.667 18.6-31.84a43654.82 43654.82 0 0 0 50.906-87.026 20822.66 20822.66 0 0 1 18.316-31.31c19.875-33.892 23.426-39.99 25.96-44.574 1.45-2.627 4.608-7.97 7.016-11.874 2.407-3.903 6.48-10.828 9.05-15.39 2.57-4.56 7.203-12.47 10.297-17.577l5.625-9.286h83.463l.27 165.297.268 165.3 35.82.278 35.818.28v81.693h-72.169V577.92h-90.211v-79.068zm0-244.63c0-51.182-.386-83.844-.99-83.844-.545 0-2.61 2.985-4.59 6.633-5.73 10.56-22.355 39.855-27.553 48.555-6.916 11.575-21.314 36.18-32.77 56.004-5.49 9.497-15.56 26.093-22.377 36.88l-12.397 19.614h100.677v-83.843z"/>
</svg>
