<svg viewbox="0 0 238 122" id="icon--logo-novatek" class="icon icon--logo-novatek">
    <path d="M54.854 112.065c-6.07-.947-10.23-4.515-11.67-10.006-.496-1.89-.662-5.252-.358-7.23.765-4.986 3.14-8.373 7.252-10.35 2.85-1.37 4.846-1.765 8.788-1.736 2.53.018 3.61.125 5.005.497 6.707 1.787 10.26 6.15 10.71 13.146.316 4.897-1.168 9.138-4.22 12.064-1.133 1.086-4.69 3.064-5.51 3.064-.233 0-.423.075-.423.167s-.225.176-.5.186-1.284.135-2.24.277c-2.186.328-4.395.302-6.833-.078zm5.753-7.38c.767-.57 1.527-1.69 1.834-2.71.385-1.277.522-5.99.225-7.7-.45-2.58-1.597-4.157-3.25-4.467-1.873-.352-3.44.593-4.356 2.628-.49 1.087-.528 1.447-.53 5.063 0 3.594.038 3.978.51 5.002.95 2.06 2.085 2.85 3.9 2.708.605-.05 1.33-.277 1.667-.526zm116.838 7.57c-1.036-.104-3.417-.494-4.728-.774l-1.058-.225v-3.875c0-2.13.074-3.873.166-3.872s.665.153 1.274.338c.608.185 1.228.29 1.376.233.147-.06.307.008.352.145.053.158 1.036.286 2.664.35 2.053.078 2.835.018 3.83-.295 1.46-.46 3.057-1.766 3.7-3.025l.44-.863h-9.798v-6.008h4.888c5.47 0 5.182.113 4.064-1.595-1.923-2.94-6.54-3.526-12.567-1.593-.36.116-.39-.16-.39-3.764v-3.89l1.278-.256c4.316-.87 10.056-.782 13.62.208 6.64 1.844 10.463 6.92 10.463 13.893 0 6.78-3.552 11.756-9.91 13.882-2.864.957-6.38 1.315-9.665.985zM10.59 97.498v-14.46h11.124V93.05h7.12V83.037h11.124v28.92H28.834V101.28h-7.12v10.68H10.59V97.497zm66.742 0V82.993l10.067.1c8.55.087 10.265.16 11.386.477 1.984.563 3.083 1.107 4.12 2.043 2.497 2.256 2.958 6.355 1.012 8.994-.678.918-2.39 2.152-3.247 2.34-.856.19-.82.47.086.64 1.098.206 3.127 1.57 3.818 2.567.863 1.246 1.212 2.365 1.224 3.924.027 3.766-1.987 6.06-6.37 7.254-1.628.443-2.4.48-11.92.573l-10.177.1V97.498zm15.498 7.86c1.706-.87 2.093-3.02.748-4.15-.707-.596-2.69-1.04-4.64-1.04h-1.15v5.846l2.095-.11c1.465-.076 2.348-.24 2.947-.545zm-.233-11.4c1.62-.735 2.13-2.23 1.178-3.44-.737-.94-1.604-1.252-3.874-1.4l-2.112-.14v5.407l1.947-.005c1.418-.005 2.195-.12 2.862-.422zm13.89 17.724c.006-.153 2.243-6.636 4.97-14.405l4.958-14.127 7.44-.06 7.44-.058 5.054 14.203c2.778 7.812 5.053 14.32 5.053 14.467 0 .2-1.432.25-5.82.206l-5.82-.06-.972-3.06-.972-3.058h-8.37l-.275.945c-.15.52-.58 1.922-.955 3.114l-.68 2.168h-5.53c-4.284 0-5.53-.062-5.52-.276zm19.917-13.238c-1.294-4.063-2.776-8.1-2.877-7.843-.248.637-2.59 7.952-2.59 8.092 0 .078 1.258.14 2.796.14 2.56 0 2.785-.03 2.67-.388zm20.784 3.393V91.714h-9.678l.065-4.338.064-4.338h30.238v8.676h-9.566v20.246h-11.126v-10.123zm52.95-4.34v-14.46h11.124l.004 5.62.003 5.616 3.344-5.617 3.346-5.618h6.33c3.48 0 6.328.058 6.328.127s-2.16 3.125-4.798 6.79l-4.797 6.66 5.242 7.556c2.883 4.156 5.242 7.608 5.242 7.673s-2.984.116-6.633.116h-6.633l-3.433-5.952-3.435-5.95-.06 5.95-.06 5.95h-11.117V97.5zM95.797 50.41v-6.82l-4.283.148c-4.22.148-6.486.452-8.343 1.12-.52.186-.946.254-.946.15 0-.488 1.365-3.47 1.822-3.98 1.17-1.304 3.068-2.478 4.018-2.483.214 0 .39-.08.39-.177s.175-.206.39-.244c.213-.038 13.503-.14 29.532-.23s29.683-.233 30.34-.323 1.936-.397 2.838-.684c.9-.287 1.64-.45 1.64-.364 0 .376-1.157 3.06-1.612 3.74-.67 1.002-2.78 2.395-4.163 2.75l-1.12.286V57.23h-23.804V43.66h-2.892v13.57H95.797v-6.82zM85.562 36.053c0-.34 1.213-3.09 1.664-3.77.993-1.502 3.064-2.605 5.774-3.076.854-.148 10.344-.233 26.81-.24 24.916-.01 32.75-.156 33.21-.616.126-.124.345-.183.486-.128.142.055.847-.104 1.566-.352.72-.248 1.344-.417 1.385-.375.135.135-.795 2.62-1.265 3.38-.972 1.573-2.73 2.72-5.16 3.375-1.268.34-4.163.388-30.765.506-32.26.144-28.992.02-33.204 1.247-.274.08-.5.102-.5.05zm3.337-8.948c0-.31 1.058-2.822 1.468-3.487.873-1.412 2.54-2.558 4.484-3.082l.944-.254V6.507H119.6v13.349h2.892V6.508h23.804v13.406l4.616-.123c4.437-.12 6.376-.376 8.127-1.08.34-.137.668-.2.728-.138.062.06-.163.85-.497 1.754-1.004 2.713-2.884 4.22-6.285 5.04-1.28.307-5.12.367-30.873.48-22.038.095-29.476.193-29.67.388-.144.144-.377.216-.52.162-.14-.055-.845.104-1.564.35-1.403.484-1.458.498-1.458.36z"/>
</svg>
