<svg viewbox="0 0 146.719 37.424" id="icon--logo-alcatel" class="icon icon--logo-alcatel">
    <path d="M12.026 28.99h4.38l-2.19-4.985-2.19 4.985z"/>
    <path d="M135.82 33.486h-5.28V21.16h1.536v10.92h3.744v1.406zm-19.49-10.92h-5.08v3.45h4.934v1.405h-4.935v4.66h5.08v1.406h-6.62V21.16h6.62v1.407zm-19.56 0h-2.926v10.92h-1.536v-10.92H89.38v-1.405h7.39v1.407zM66.89 33.6l6.47-12.828L79.827 33.6H66.89zm-8.5-10.086c-.88-.783-2.09-1.208-3.252-1.208-2.762 0-4.87 2.305-4.87 5.035 0 2.697 2.09 5 4.838 5 1.21 0 2.37-.456 3.285-1.276v1.817c-.947.557-2.156.867-3.235.867-3.515 0-6.424-2.795-6.424-6.358 0-3.647 2.928-6.49 6.555-6.49 1.08 0 2.175.26 3.106.833v1.78zm-21.154 9.972h-5.28V21.16h1.538v10.92h3.742v1.406zm-18.786 0l-1.405-3.09H11.39l-1.406 3.09h-1.65l5.884-12.848L20.1 33.486h-1.65zM0 37.424h146.72V16.832H0v20.592zm73.36-24.598L79.827 0H66.89l6.47 12.826z"/>
</svg>
