<svg viewbox="0 0 155.305 35.435" id="icon--logo-aif" class="icon icon--logo-aif">
    <path d="M144.88 11.4l-.015.12-.014.12-.03.133-.03.147-.043.148-.06.148-.044.134-.058.133-.062.133-.073.118-.06.12-.073.102-.075.104-.088.104-.076.09-.087.09-.087.086-.105.09-.09.073-.102.075-.104.058-.103.075-.12.06-.103.044-.12.06-.118.044-.133.045-.12.03-.044.013-.087.015-.135.03-.132.016-.134.03h-.147l-.148.014h-1.438l.977-4.205h1.493l.136.015.132.014.132.015.12.015.133.03.117.03.104.027.12.045.103.03.104.045.09.044.088.044.09.06.074.044.06.06.057.06.06.06.06.057.043.06.03.06.045.074.03.074.016.073.015.09.015.09.015.09v.102zm2.857 2.726l.163-.266.133-.297.09-.207.044-.09.12-.295.103-.31.088-.31.074-.326.06-.312.044-.326.03-.295v-.31l-.016-.28-.044-.298-.06-.282-.073-.265-.103-.268-.12-.25-.148-.238-.146-.223-.194-.222-.192-.193-.223-.192-.236-.178-.237-.163-.266-.15-.28-.148-.297-.117-.31-.12-.328-.103-.34-.088-.356-.09-.354-.073-.386-.058-.4-.06-.414-.03-.43-.03-.09-.015-.34-.014h-.19l.53-2.28.43-1.806h-3.95l-2.314 9.876-1.286 5.48h4.798l.415-.017.4-.012.397-.032.386-.043.385-.06.34-.074h.03l.357-.09.355-.104.34-.103.326-.12.327-.133.31-.147.296-.164.297-.162.28-.178.267-.194.266-.19.238-.223.238-.21.237-.235.207-.238.193-.25.192-.253.178-.267.162-.28zM33.747 27.04l-.222.015-.22.012-.24.017h-2.443l.978-4.592h2.83l.19.015.18.015.176.015.163.014.162.032.074.03.074.015.134.028.133.045.118.044.12.046.102.044.104.06.09.057.09.046.073.06.06.06.073.073.044.06.06.057.044.074.045.076.03.073.028.074.03.075.015.07.015.09.015.09v.28l-.015.104-.015.18-.045.175-.03.178-.06.162-.043.148-.06.148-.06.134-.072.133-.074.133-.076.104-.074.12-.09.1-.102.105-.104.09-.104.09-.12.088-.116.073-.134.074-.104.06-.03.014-.147.075-.15.058-.162.058-.163.045-.177.046-.193.045-.192.03-.193.03-.222.03zM29.142 13.4h-5.257l.06-.058 6.796-7.537-1.598 7.596zm-3.095 13.624h-2.93l-.165-.014h-.162l-.163-.03-.148-.015-.15-.03-.133-.03-.133-.03-.118-.044-.104-.043-.118-.044-.09-.06-.103-.043-.074-.06-.087-.06-.075-.06-.06-.073-.06-.06-.06-.074-.043-.073-.06-.09-.028-.088-.045-.088-.03-.105-.03-.104-.03-.104-.015-.118-.015-.118v-.283l.015-.147.015-.148.015-.134.03-.133.03-.117.03-.12.042-.117.045-.12.06-.103.06-.104.058-.104.075-.09.074-.103.086-.087.09-.09.09-.074.103-.09.102-.073.104-.076.118-.06.118-.072.133-.06.134-.06.132-.044.15-.06.147-.044.16-.027.15-.045.177-.032.163-.013.177-.015.178-.015.06-.015h3.124l-1.023 4.53zm8.455 2.99l.385-.043.385-.074.104-.015.268-.056.355-.09.34-.104.34-.104.31-.132.31-.134.15-.074.162-.074.282-.163.266-.164.266-.177.253-.193.235-.208.222-.223.208-.222.192-.236.193-.255.162-.25.163-.268.134-.266.132-.28.03-.075.074-.22.104-.298.09-.31.072-.312.06-.326.044-.326.03-.34v-.638l-.03-.296-.044-.295-.075-.283-.088-.266-.105-.25-.134-.254v-.028l-.13-.208-.165-.207-.178-.21-.192-.19-.22-.18-.224-.16-.235-.15-.238-.134-.266-.132-.266-.104-.282-.103-.296-.09-.207-.058-.105-.016-.31-.074-.326-.06-.328-.06-.34-.044-.355-.03-.31-.03h-.045l-.386-.03-.37-.014-.4-.013h-1.969l1.54-7.035 1.63-7.39L36.486 0h-5.612l-6.93 7.596-17.903 19.65 1.88-7.847H3.984L0 34.354h4.354l7.18-7.88-1.804 7.88h4.056l3.51-13.742 3.628-4h7.403l-.592 2.786h-3.48l-.31.012h-.104l-.43.015-.398.045-.385.044-.37.075-.37.075-.356.104-.34.102-.325.118-.31.134-.298.132-.296.164-.265.147-.266.18-.254.175-.236.194-.223.193-.222.19-.19.207-.195.208-.178.222-.162.223-.164.222-.147.222-.12.222-.133.236-.103.238-.104.222-.09.237-.073.22-.075.237-.058.238-.06.267-.03.28-.028.268-.016.266.016.266.03.268.044.266.044.25.073.238.104.25.105.238.12.224.132.22.163.208.162.207.178.195.192.176.223.18.222.162.237.148.237.134.267.133.267.12.296.103.296.09.296.07.325.076.327.06.34.044.356.03.355.015.37.014h2.99l-1.243 5.315h4.324l1.466-5.316h2.948l.43-.015.43-.016h.057l.355-.03.4-.045zm116.73-27.466l-3.11 13.015-.547 2.34h4.25l3.48-15.355h-4.073zM102.914 11.4l.652-3.034H95.6l.77-2.946h9.269l.578-2.872H92.816l-2.65 10.898-1.082 4.457h13.608l.83-3.703h-9.33l.77-2.8h7.952zM48.26 17.903h3.833L55.248 5.76h4.68l2.427 6.25-4.915 5.893h4.502L72.53 5.11l-2.86 12.793h3.718l2.176-8.545 1.036 8.545h3.985l4.057-6.855 1.14-1.94-1.14 4.826-.948 3.97h3.894l2.577-10.84 1.082-4.516h-5.525l-1.08 1.82-4.71 7.864-.843-6.827-.357-2.857h-8.485l-4.87 5.834-2.593-5.834H51.857l-1.23 5.24-1.464 6.265-.904 3.85z"/>
    <path d="M40.35 7.76l.4-1.97 2.963-.03h.298l.133.015.147.015.12.03.133.014.117.03.104.045.06.012.044.017.103.042.105.044.09.044.074.06.086.045.075.06.06.058.06.06.06.075.058.057.045.075.044.074.045.074.045.075.028.088.03.075.015.09.03.103.014.087v.104l.015.103v.12l-.016.103-.014.178-.03.162-.03.163-.03.146-.043.135-.06.133-.044.135-.06.118-.074.104-.075.104-.073.104-.075.09-.088.086-.09.074-.105.09-.102.074-.12.058v.015l-.118.06-.118.06-.133.058-.15.045-.146.06-.163.027-.163.045-.178.03-.177.045-.193.015-.192.03-.208.014-.207.015H39.86l.49-2.37zM34.075 17.9h3.878l1.125-4.516h3.629l.355-.016.358-.028.34-.03.34-.045.326-.045.326-.058.074-.014.25-.06.312-.09.31-.088.298-.104.295-.118.28-.118.268-.15.266-.147.266-.163.238-.177.237-.178.236-.21.21-.205.206-.236.208-.238.177-.252.18-.266.103-.178.043-.09.15-.295.133-.296.116-.31.12-.325.088-.342.09-.355.057-.355.046-.31.03-.297.03-.296v-.282l-.016-.28-.03-.268-.044-.265-.058-.253-.074-.25-.09-.24-.104-.22-.132-.222-.133-.208-.15-.207-.072-.09-.09-.088-.178-.177-.19-.164-.21-.163-.206-.132-.224-.133-.237-.117-.252-.104-.252-.09-.266-.09-.267-.073-.295-.058-.283-.06-.31-.044-.31-.03-.312-.03-.34-.013h-7.286l-.207.903-2.074 8.84-1.302 5.612zm52.67 10.442v.133l-.015.148-.014.15-.016.162-.03.147-.03.148-.044.148-.044.134-.043.118-.046.133-.06.118-.06.105-.058.103-.075.104-.073.104-.074.09-.073.072-.075.09-.088.074-.09.075-.09.073-.087.06-.104.058-.103.06-.105.044-.117.045-.12.044-.117.046-.118.03-.118.03-.016.014-.117.015-.134.028-.133.015h-.15l-.146.017h-1.438l.98-4.208h1.495l.134.016h.118l.134.014.117.016.12.03.102.016.105.027.087.03.09.03.09.044.072.03.075.045.075.045.058.043.044.044.06.045.045.06.044.044.03.06.03.074.03.072.03.075.03.09.014.103.015.104v.118zm3.287 2.25l.12-.28.013-.03.104-.267.102-.295.09-.312.073-.28.045-.18.045-.207.03-.205.027-.208v-.444l-.013-.223-.03-.222-.03-.22-.06-.223-.06-.208-.088-.222-.09-.223-.103-.207-.045-.06-.09-.147-.13-.207-.15-.207-.163-.192-.177-.177-.208-.177-.207-.164-.223-.147-.236-.148-.25-.134-.268-.118-.28-.105-.297-.088-.31-.074-.328-.058-.338-.045-.36-.015-.354-.015h-1.581l.427-1.925.565-2.532h-3.968l-2.147 9.18-1.35 5.777h5.201l.4-.017.4-.03.37-.028.37-.044.16-.03.207-.03.343-.075.34-.073.34-.074.31-.103.312-.104.312-.118.28-.133.282-.133.283-.15.25-.16.25-.164.237-.193.238-.192.207-.192.208-.222.192-.222.194-.236.16-.24.164-.264.15-.253.132-.28zm.133 2.162l-.37 1.6h4.25l3.39-14.956H93.35l-3.185 13.356zm26.299-24.551h-6.367l1.242-5.655h-4.058l-2.31 10.01-1.228 5.345h4.073l1.465-6.324h6.367l-1.348 6.323h3.835l3.523-15.355h-3.893l-1.303 5.655zm-36.829 14.29l.802-3.095H62.785l-7.21 5.256 1.124-5.256h-3.717l-2.355 9.936-1.184 5.02h4.13l1.08-4.93 2.03-1.38 3.466 6.31h4.664l-4.916-8.72 4.22-3.083h5.997l-2.693 11.804h3.907l2.812-11.86h5.495zM137.46 5.7l.638-3.152h-15.194l-.814 3.212h5.524l-3.035 12.143h4.293L132.086 5.7h5.373zM45.4 28.83h-1.982l1.406-1.495 1.408-1.496-.83 2.99zm6.412-9.432h-4.545l-2.444 2.74-4.472 5.004-2.9 3.228-2.074 2.31-1.495 1.674h4.205l2.25-2.31h4.341l-.504 2.31h4.058l.932-3.895 1.466-6.117 1.184-4.945z"/>
</svg>
