<svg viewbox="0 0 141.798 41.962" id="icon--logo-alfabank" class="icon icon--logo-alfabank">
    <path d="M13.47 0c2.86 0 3.756 2.046 4.506 4.095.32.864 7.742 21.19 7.964 21.8.06.168.02.445-.242.547-.262.1-4.12 1.6-4.332 1.68a.415.415 0 0 1-.53-.248c-.082-.213-1.678-4.642-1.86-5.14H7.978c-.18.498-1.796 4.935-1.87 5.14-.075.2-.305.34-.53.25-.226-.09-4.102-1.59-4.33-1.68a.432.432 0 0 1-.245-.55c.274-.764 7.58-20.76 7.955-21.8C9.684 2.08 10.615 0 13.47 0M.417 36.365a.419.419 0 0 0-.416.425v4.746a.42.42 0 0 0 .416.426h26.11c.23 0 .412-.19.412-.426V36.79a.416.416 0 0 0-.413-.425H.415zM13.45 6.635L9.73 17.8h7.496l-3.73-11.164h-.047zm97.138 16.385c0 1.265-.7 2.095-1.986 2.095-.51 0-.928 0-1.59-.18V21.11a7.964 7.964 0 0 1 1.59-.116c1.31.046 1.986.66 1.986 2.027m2.644-.19c0-2.34-1.37-3.955-4.255-3.955-.708 0-1.203.067-1.965.25l-.006-3.373a17.275 17.275 0 0 1 2.183-.127c.85 0 1.922.046 2.864.16l.067-1.953c-1.07-.24-2.623-.387-3.83-.387-1.188 0-3.036.296-3.914.535v12.462a11.67 11.67 0 0 0 4.082.734c3.144 0 4.774-1.67 4.774-4.346m-29.99-.678c0 1.74-.693 2.86-1.834 2.86-.48 0-.73-.025-1.27-.2V19.59c.59-.285.91-.28 1.392-.28 1.14 0 1.712.945 1.712 2.843m-8.687.058c0-1.898.572-2.9 1.712-2.9.483 0 .8-.005 1.393.28v5.223c-.538.175-.793.2-1.27.2-1.302 0-1.835-1.062-1.835-2.802m5.584 7.825V26.64c.312.183.94.46 1.998.46 2.105 0 3.655-1.75 3.655-4.945 0-3.445-1.54-4.917-4.074-4.917-.643 0-1.062.066-1.58.315v-4.06h-2.48v4.06c-.52-.248-.94-.314-1.58-.314-2.535 0-4.076 1.535-4.076 4.975 0 3.198 1.394 4.887 3.653 4.887 1.062 0 1.688-.276 2.003-.46v3.398h2.48zm-21.294-3.102v-7.43c-.657-.1-.767-.12-1.297-.12-.525 0-.655.02-1.313.12v3.43c0 2.76-.752 3.632-2.747 4.192l-.678-1.456c.5-.33.686-.763.822-1.12.14-.41.16-.79.16-2.06v-4.665c1.365-.405 2.39-.58 3.756-.58 1.37 0 2.42.175 3.784.58v9.11h-2.487zm33.098-1.995c-.548.186-.908.23-1.336.23-.89 0-1.397-.35-1.397-1.26 0-.952.638-1.27 1.872-1.27.295 0 .595.043.73.09v.68c0 .735.038 1.214.13 1.53m3.157 1.09c-.657-1-.826-1.586-.826-2.84v-2.55c0-1.375-.16-1.88-.525-2.386-.503-.705-1.345-1.01-2.896-1.01-1.094 0-2.17.12-3.197.377l.368 1.825c.7-.097 1.428-.18 1.954-.18 1.645 0 1.833.24 1.833 1.474v.46c-.364-.1-.778-.17-1.254-.17-2.49 0-3.796 1.21-3.796 3.213 0 1.878 1.398 2.908 3.11 2.908.638 0 1.303-.12 1.826-.33.317-.14.453-.22.865-.492.25.367.742.732.945.8l1.59-1.098zm24.259-1.09c-.546.186-.904.23-1.338.23-.89 0-1.393-.35-1.393-1.26 0-.952.638-1.27 1.87-1.27.3 0 .594.043.73.09v.68c0 .735.04 1.214.13 1.53m3.16 1.09c-.658-1-.828-1.586-.828-2.84v-2.55c0-1.375-.16-1.88-.524-2.386-.505-.705-1.343-1.01-2.895-1.01-1.095 0-2.17.12-3.195.377l.366 1.825c.7-.097 1.43-.18 1.957-.18 1.64 0 1.83.24 1.83 1.474v.46c-.363-.1-.773-.17-1.253-.17-2.487 0-3.794 1.21-3.794 3.213 0 1.878 1.4 2.908 3.11 2.908.636 0 1.3-.12 1.825-.33.318-.14.455-.22.865-.492.246.367.745.732.945.8l1.59-1.098zm-54.122-2.365c0 .93-.328 1.572-1.52 1.572-.403 0-.568 0-1.09-.147v-2.727c.648-.127.705-.15 1.09-.15 1.14 0 1.52.558 1.52 1.452m-5.093-6.27l-.012 9.046a9.576 9.576 0 0 0 3.624.723c2.64 0 4.053-1.367 4.053-3.616 0-2.034-1.25-3.292-3.588-3.292-.593 0-.942.077-1.593.236v-3.095h-2.485zm65.814 9.54v-3.86H126.3v3.86h-2.48V17.48h2.48v3.576h2.816V17.48h2.485v9.455h-2.484zm9.974 0s-.837-2.05-1.28-2.943c-.377-.747-.5-.926-1.207-.926l-.342.007v3.86h-2.49V17.48h2.49v3.573h.42c.646 0 .76-.222 1-.72.234-.487.417-.875.652-1.35.216-.447.395-.83.65-1.085.33-.336.682-.526 1.354-.567a6.64 6.64 0 0 1 1.155.026l-.124 1.72s-.334-.083-.58.138c-.245.217-.372.417-.797 1.34-.443.944-.85 1.257-1.363 1.353v.046c.766.18 1.11.69 1.484 1.435.333.653 1.688 3.546 1.688 3.546h-2.707zm-89.917 0h2.864L47.712 13.72a5.115 5.115 0 0 0-1.624-.25c-.654 0-.89.085-1.404.25L40.1 26.934h2.743s.366-1.158.816-2.594h4.74c.43 1.437.773 2.595.773 2.595m-4.816-4.81s.79-2.648.912-3.063c.318-1.078.797-2.775.797-2.775h.08s.44 1.76.727 2.76c.113.387.867 3.08.867 3.08h-3.383zm56.552.08c0 .88-.71 1.587-1.585 1.587a1.584 1.584 0 0 1-1.586-1.587c0-.873.71-1.59 1.586-1.59.875 0 1.585.717 1.585 1.59"/>
</svg>
