<svg viewbox="0 0 110.266 48.997" id="icon--logo-rzhd" class="icon icon--logo-rzhd">
    <path d="M78.093 4.335v1.78h15.33c1.01 0 2.55 0 3.568 1.026 1.02 1.02 1.02 2.55 1.02 3.577V26.03c0 1.014 0 2.554-1.02 3.57-1.017 1.02-2.556 1.02-3.568 1.02h-7.405c-1.278 0-2.94 0-3.575-1.406-.64-1.4.254-2.678 1.02-3.7l9.96-13.26h-15.33l-6.116 8.163c-1.023 1.367-1.913 2.55-1.913 4.08 0 1.532.82 2.637 1.913 4.087l1.537 2.036c1.52 2.04 3.058 4.086 5.1 5.106 2.045 1.018 4.464 1.018 7.786 1.018h6.64c3.824 0 9.573 0 13.398-3.823 3.828-3.83 3.828-9.444 3.828-11.49v-6.124c0-2.04 0-7.656-3.828-11.48C102.613 0 96.864 0 93.038 0H82.443c-1.02 0-2.298 0-3.314 1.016-1.035 1.023-1.035 2.295-1.035 3.32"/>
    <path d="M59.724 12.254h15.31L56.66 36.75H41.347l18.377-24.496zM0 16.58c0-1.016 0-2.292 1.02-3.316 1.024-1.01 2.294-1.01 3.32-1.01h25.65c3.316 0 5.745 0 7.783 1.01 2.043 1.024 3.573 3.066 5.113 5.105l1.523 2.047c1.085 1.447 1.918 2.55 1.918 4.08 0 1.532-.888 2.717-1.92 4.087l-6.123 8.168H22.968l9.955-13.275c.77-1.017 1.662-2.294 1.024-3.704-.64-1.404-2.298-1.404-3.58-1.404H18.378v30.627H6.125V18.37H0v-1.79"/>
</svg>
