<svg viewbox="0 0 407 148" id="icon--logo-eek" class="icon icon--logo-eek">
    <path d="M133.282 82.414c-28.343 2.323-60.993.34-91 1-4.842 34.86 48.55 40.252 59 15h29c-4.52 34.273-51.4 55.06-90 36-32.768-16.18-43.165-66.5-22-99 9.02-13.853 31.852-31.865 62-28 34.3 4.398 54.63 33.65 53 75zm-91-22h56c2.155-34.69-57.786-33.695-56 0zm99 34h33c3.948 32.178 57.13 24.973 55-10-11.67-2.33-27.663-.336-41-1v-22h40c2.693-30.564-49.104-38.653-54-9h-33c2.532-50.34 79.458-55.78 107-25 32.75 36.597 14.07 108.056-39 113-29.996 2.795-66.49-10.817-68-46z"/>
    <path d="M271.28 11.414h35v51c15.445-12.89 30.432-34.902 46-51h38c.65 4.46-5.395 8.235-9 12-11.16 11.664-24.67 26.323-36 38 17.608 25.393 35.94 50.06 54 75-12.002 2.33-28.33.336-42 1-10.738-17.928-23.402-33.93-34-52-6.42 5.247-11.974 11.358-17 18v34h-35v-126z"/>
</svg>
