<svg viewbox="0 0 236.5 45" id="icon--logo-linxtelecom" class="icon icon--logo-linxtelecom">
    <path d="M50.39 10.7v24.2h-4.914c.12-8.006-.243-16.497.182-24.2h4.73zm4.73 0h5.095c-.282.995-.318 3.197 0 4.186-1.336.424-3.456.063-5.095.183V10.7zm86.245 0v24.2h-4.913c.122-8.006-.242-16.497.183-24.2h4.73zm-30.932.365c.424 1.698.062 4.184.182 6.186h3.275v3.822h-3.093c-.204 2.994-.58 7.737.364 10.19.966.51 1.728-.187 2.73-.183.132 1.2.294 2.374.364 3.638-2.32.808-5.292 1.074-6.915 0-3.166-2.096-.938-8.9-1.638-13.465-.37-.417-1.51-.065-2.184-.182v-3.82h2.184v-3.457c1.652-.835 3.273-1.7 4.73-2.728zM81.32 34.9h-4.91s1.208-14.188-2.73-14.374c-5.166-.25-3.86 8.54-4.002 14.374h-4.913V17.25h4.55c.38.664.103 1.89 0 2.185 2.393-2.702 8.496-3.647 10.916-.728C82.225 21.32 81.32 34.9 81.32 34.9zm51.31-7.277h-11.826c-.716 4.434 6.066 5.65 6.732 1.638 1.563.257 3.04.6 4.73.73-.938 3.378-3.3 5.25-7.095 5.457-6.77.37-10.146-4.553-9.46-10.917 1.186-11.003 18.735-9.787 16.92 3.093zm-11.826-3.094h6.915c.618-5.028-7.502-4.937-6.916 0zm40.94 2.911c-3.643.422-8.064.063-12.01.183.033 2.64 1.982 4.533 4.367 4.185 1.612-.235 1.696-1.54 2.73-2.547 1.417.342 2.908.61 4.55.73-1.148 3.53-3.484 5.25-7.28 5.457-5.772.314-9.27-3.216-9.46-8.733-.2-5.806 3.693-10.12 9.098-9.825 5.198.28 8.146 4.253 8.006 10.55zm-11.827-2.91h6.914c.582-4.803-7.59-5.178-6.913 0zm31.478-2.185c-1.064.816-3.18.58-4.55 1.092-.982-1.16-.886-2.102-2-2.547-6.97-2.79-7.46 12.938-.182 10.37 1.293-.455 1.63-1.574 2.183-3.092 1.688.13 3.13.508 4.73.728-1.02 4.61-3.993 6.485-8.187 6.55-7.89.123-11.755-9.174-7.46-15.283 3.266-4.65 14.216-4.49 15.465 2.182zm10.372-5.275c7.576-.923 14.094 6.823 9.28 14.373-3.582 5.617-13.577 4.866-16.377-.546-3.31-6.4.917-13.076 7.097-13.828zm2.365 14.373c4.64-.913 4.62-12.034-2.184-10.37-5.136 1.255-3.737 11.536 2.184 10.37zm26.746-11.826c1.996-2.833 7.443-3.718 10.008-1.274 3.21 2.977 1.638 16.558 1.638 16.558h-4.913s.724-10.546-.908-13.827c-7.14-2.258-4.68 8.156-5.095 13.828h-4.913c-.5-4.715 1.23-11.66-1.456-14.19-7.033-.788-3.81 8.685-4.55 14.19h-4.91V17.253h4.548v2.002c1.61-2.433 9.11-3.636 10.552.363zM60.032 17.25V34.9H55.12c.12-5.823-.244-12.13.18-17.65h4.732zm24.018.183c1.638-.424 4.063-.062 6.004-.183 1.006 1.603 2.14 3.077 3.093 4.73 1.118-1.55 2.225-3.11 3.275-4.73h5.64c-1.68 3.05-4.008 5.452-5.822 8.37 2.047 3.17 4.287 6.146 6.55 9.098-1.64.424-4.063.062-6.004.182-1.194-1.717-2.443-3.38-3.457-5.276-1.453 1.58-2.5 3.567-3.822 5.276h-5.64c2.006-3.088 4.197-5.99 6.367-8.915-1.904-3.008-4.093-5.73-6.185-8.552zM28.254 2.388c-7.175 0-13.033 5.638-13.388 12.725C7.78 15.467 2.142 21.326 2.142 28.5c0 7.403 6 13.405 13.405 13.405 7.175 0 13.033-5.637 13.388-12.725 7.087-.354 12.724-6.213 12.724-13.388 0-7.402-6.003-13.404-13.406-13.404zm2.09 15.102L17.09 30.743a2.178 2.178 0 0 1-3.087 0 2.183 2.183 0 0 1 0-3.088l13.253-13.253a2.184 2.184 0 0 1 3.088 3.088z"/>
</svg>
