<svg viewbox="0 0 121.667 23.75" id="icon--logo-honeywell" class="icon icon--logo-honeywell">
    <path d="M10.426 8.063h-3.99V.808H.815v17.64H6.39v-7.95h4.036v8.04h5.576V.763h-5.576M27.62 5.554c-1.03-.404-2.227-.465-2.85-.465-.2 0-.325.005-.417.005-.293-.004-.74.02-1.34.127-.783.136-2.86.498-4.464 2.625-1.77 2.348-1.183 5.334-.96 6.194.36 1.39 1.12 2.488 2.465 3.56 1.49 1.185 3.676 1.312 4.547 1.312 1.52 0 2.96-.29 3.856-.774 1.497-.808 2.524-1.988 3.054-3.51.713-2.05.55-4.532-.41-6.18-.964-1.655-2.007-2.314-3.482-2.894zm-1.196 8.88c-.037.42-.22 1.843-1.013 2.51-.608.513-1.405.322-1.904-.427-.493-.742-.693-1.423-.654-3.717.01-.5.01-.965.01-1.397.002-1.496.004-2.576.32-3.268.364-.792.76-1.234 1.18-1.313.092-.02.18-.027.268-.027.788 0 1.25.752 1.5 1.382.143.36.3 1.095.31 2.08.018 1.715.02 3.755-.016 4.178zm18.229-8.858a5.26 5.26 0 0 0-2.067-.416 6.184 6.184 0 0 0-2.6.596c-.556.265-1.098.72-1.532 1.32V5.52h-5.257v12.94l5.232.003-.01-9.285c.024-.134.612-.77 1.24-1.107.222-.118.477-.18.737-.18.438 0 .775.168.914.335.38.456.38.964.378 1.268v8.966h5.167l-.008-9.806c-.03-.515-.278-2.263-2.194-3.078zM62.25 14.7l.003-.11-2.26.01-.114.086-.015.09c-.24 1.51-1.54 2.023-2.59 2.19-1.577.245-2.744-.064-3.372-.9-.184-.245-.272-.73-.274-.73v-2.482l8.996.024.03-.052c.037-.06.16-2.456-.79-4.267-1.178-2.242-3.07-3.31-6.135-3.467-2.94-.15-5.68 1.295-6.782 3.514-1.05 2.118-.84 4.56-.442 5.683.313.884.834 2.033 2.098 3.085 1.264 1.053 2.844 1.564 4.832 1.564.475 0 .967-.03 1.55-.09 1.88-.19 3.46-1.127 4.312-1.937.916-.87.95-2.158.953-2.213zm-4.904-3.735H53.62c-.004-.377-.008-1.667.11-2.33.14-.783.57-1.4.933-1.664.465-.334 1.395-.297 1.813.13a2.5 2.5 0 0 1 .678 1.164c.074.242.207.976.197 1.658-.007.615-.007.903-.004 1.043zm44.021-5.872c-2.95-.144-5.683 1.295-6.782 3.514-1.053 2.118-.84 4.56-.442 5.683.312.883.832 2.032 2.097 3.085s2.845 1.564 4.833 1.564c.475 0 .967-.03 1.55-.09 1.882-.192 3.46-1.127 4.312-1.937.917-.87.952-2.157.954-2.212v-.108l-2.26-.003-.112.085-.015.09c-.24 1.52-1.54 2.035-2.59 2.2-.35.056-.684.084-.993.084-.75 0-1.773-.17-2.38-.984-.184-.244-.27-.73-.272-.73v-2.48l8.982.023.03-.053c.038-.062.193-2.417-.777-4.267-1.18-2.243-3.072-3.31-6.136-3.467zm1.615 5.872h-3.728c-.004-.377-.007-1.668.11-2.33.142-.784.57-1.4.935-1.664.463-.333 1.394-.295 1.812.13.477.486.596.886.68 1.164.072.24.205.974.195 1.658-.008.615-.008.903-.005 1.043z"/>
    <path d="M91.85 5.523l-1.852 6.76-2.072-6.76h-4.55l-1.87 6.868-2.125-6.85-7.03-.018-2.42 5.866-2.264-5.866H61.97l5.125 13.125s-.004.124-.103.467c-.12.418-.475 1.29-1.053 1.9-.358.38-.73.464-.983.467.093-.11.207-.27.293-.472.18-.416.105-1.115-.18-1.7-.35-.726-1.218-1.09-2.38-.873-1.34.257-1.82 1.47-1.698 2.49.15 1.264 1.02 2.045 2.583 2.322.295.052.582.08.854.08 1.304 0 2.163-.605 2.897-1.256.947-.84 1.696-2.91 1.726-2.993l5.175-12.685 3.702 12.08h4.39l1.96-7.15 2.213 7.15h4.283L94.338 5.52H91.85zM109.583.77h5.033v17.713h-5.033zm6.32.02h5.033V18.5h-5.033z"/>
</svg>
