<svg viewbox="0 0 117.364 21.876" id="icon--logo-honeywell" class="icon icon--logo-honeywell">
    <path d="M0 .045h5.29v7.1h4.116V0h5.25v17.19h-5.25V9.317h-4.16v7.78H0V.046zm23.015 4.197s1.705-.098 3.078.44c1.372.54 2.4 1.15 3.355 2.792.956 1.64 1.067 4.023.393 5.96-.672 1.932-2.032 2.887-2.94 3.376-.905.49-2.327.745-3.722.745-1.398 0-3.185-.308-4.387-1.263-1.2-.955-2.007-2.005-2.374-3.426-.367-1.42-.593-3.962.922-5.97 1.513-2.01 3.422-2.38 4.3-2.53.786-.14 1.303-.124 1.377-.124m1.756 2.87c.15.38.303 1.108.31 2.074.02 1.69.023 3.685-.014 4.1-.07.8-.35 1.956-1.028 2.528-.68.57-1.505.333-2.022-.44-.515-.775-.693-1.507-.656-3.7.036-2.192-.08-3.71.333-4.608.41-.896.837-1.27 1.23-1.345.828-.164 1.453.394 1.848 1.392m11.832 1.041v8.96l-4.91-.002V4.657h4.935v1.676c.006.006.653-.978 1.65-1.453.998-.477 2.723-.923 4.483-.175 1.758.748 2.047 2.322 2.083 2.922l.007 9.485h-4.846v-8.67c0-.3 0-.835-.395-1.31-.276-.332-1.075-.536-1.745-.176-.67.36-1.356 1.1-1.26 1.2m14.868 1.831s-.03-1.625.11-2.405c.137-.78.57-1.416.954-1.695.463-.335 1.4-.385 1.912.138.51.523.62.956.69 1.182.068.228.206.956.196 1.656-.01.7-.01 1.094 0 1.124h-3.862zm-4.373-2.37c.975-1.964 3.468-3.534 6.538-3.38 3.07.16 4.835 1.278 5.917 3.338.928 1.763.795 4.073.78 4.073l-8.854-.025v2.535s.09.513.29.78c.2.265 1.002 1.3 3.403.92 2.662-.42 2.587-2.313 2.64-2.313l2.107-.01s-.026 1.258-.9 2.09c-.875.833-2.423 1.692-4.158 1.87-1.735.177-4.19.227-6.17-1.422-1.157-.965-1.68-2.01-2.02-2.974-.423-1.192-.55-3.514.428-5.482m49.041 2.37s-.03-1.625.11-2.405c.138-.78.57-1.416.955-1.695.463-.335 1.4-.385 1.91.138.514.523.623.956.69 1.182.07.228.208.956.2 1.656-.01.7-.01 1.094 0 1.124h-3.865zm-4.372-2.37c.975-1.964 3.468-3.534 6.537-3.38 3.07.16 4.834 1.278 5.918 3.338.925 1.763.78 4.073.763 4.073l-8.836-.025v2.535s.087.513.29.78c.197.265 1 1.3 3.4.92 2.662-.42 2.59-2.325 2.644-2.325l2.105.002s-.025 1.258-.902 2.09c-.87.833-2.42 1.692-4.156 1.87-1.736.177-4.19.227-6.17-1.422-1.158-.965-1.68-2.01-2.02-2.974-.423-1.192-.548-3.515.43-5.482"/>
    <path d="M59.907 4.66h5.35l2.285 5.922 2.443-5.92 6.732.016 2.165 6.976 1.905-6.993h4.294l2.114 6.892 1.887-6.89h2.216L87.87 17.127h-4.033l-2.25-7.272-1.993 7.272h-4.137l-3.69-12.033-5.175 12.69s-.745 2.08-1.66 2.893c-.92.813-1.924 1.418-3.588 1.125-1.66-.293-2.318-1.16-2.44-2.18-.12-1.022.398-2.096 1.577-2.322 1.175-.224 1.937.226 2.215.798.277.57.33 1.212.172 1.575-.155.364-.415.59-.415.59s.658.173 1.264-.468c.605-.64.953-1.54 1.055-1.904.106-.364.106-.485.106-.485L59.906 4.66zM106.464.006h4.714v17.127h-4.714V.006zm6.186.02h4.714v17.126h-4.714V.026z"/>
</svg>
