<svg viewbox="0 0 162.966 31.552" id="icon--logo-openbank" class="icon icon--logo-openbank">
    <path d="M119.47 9.014h11.877v2.647h-.86s-.144-1.357-1.504-1.357h-2.07v12.235h-2.938V10.303h-2.145c-1.142 0-1.43.93-1.5 1.358h-.86V9.015zm24.818 0h2.15v13.524h-2.867v-9.445l-7.077 9.445h-2.15V11.52c0-1.575-1.358-1.79-1.358-1.79v-.716h4.22v9.517l7.083-9.516zM82.2 22.538h-3.718l-2.65-5.01s-.786-1.5-1.645-1.5h-1.074v6.51H70.18v-11.02c0-1.572-1.432-1.715-1.432-1.715v-.787h4.365v5.65h1.29s.858-.07 1.574-1.217c2.29-3.72 2.003-4.434 3.006-4.434h2.858v.93c-2 0-2.574 4.078-4.505 5.365.933.358 1.287 1.22 3.362 5.01 0 0 .5 1.288 1.504 1.288v.93zm79.908-2.935c-1.36 1.86-3.363 3.152-6.01 3.152-3.58 0-7.015-2.793-7.015-6.444v-.784c0-3.935 3.15-6.728 7.014-6.728 3.865 0 6.87 3.15 6.87 6.943H152.59v2.22c0 1.93 1.573 3.503 3.865 3.503 2.004 0 3.36-.856 4.438-2.003l1.213.143zm-9.516-5.222h7.01v-.714a3.51 3.51 0 0 0-3.505-3.506 3.511 3.511 0 0 0-3.505 3.506v.715zm-57.569 3.506c0 1.716-1.217 3.36-3.076 3.435h-.284c-1.646 0-3.077-1.216-3.29-2.505V13.02c.14-1.358 1.5-2.86 3.29-2.86h.57s2.718.142 2.79 3.435v4.292zm-2.72-9.09c-1.644 0-3.217.716-3.93 1.72V9.015h-4.295V9.8s1.36.217 1.36 1.72v17.175h2.934v-7.59c1.36 1.575 3.147 1.648 3.72 1.648 3.79-.073 6.364-3.006 6.364-6.656v-.86c0-3.932-2.43-6.44-6.152-6.44m-40.86 9.017c0 1.93-1.5 3.65-3.72 3.65s-3.65-1.72-3.65-3.65V13.52c0-1.93 1.645-3.434 3.65-3.434 2.22 0 3.72 1.573 3.72 3.508v4.22zm-3.72-9.016c-5.08 0-7.156 3.936-7.156 6.515v1.142c0 3.004 2.935 6.298 7.157 6.298 3.937 0 7.228-2.934 7.228-6.37v-.932c0-3.43-2.72-6.652-7.228-6.652m69.742.215h-4.292V9.8s1.428.216 1.428 1.79v10.95h2.864V9.014zM104.872 21.18v-5.653h2.505c1.357 0 2.43 1.07 2.43 2.647v.575c0 1.284-1.214 2.43-2.504 2.43h-2.43zm0-7.01V9.015h-4.293v.787s1.287.143 1.287 1.716v11.02h6.655c2.574 0 4.434-1.577 4.434-3.79v-.646c0-2.437-1.788-3.935-4.58-3.935h-3.504zM55.453 9.014H67.33v2.647h-.86s-.143-1.357-1.506-1.357h-2.072v12.235H59.96V10.303h-2.15c-1.143 0-1.43.93-1.5 1.358h-.86V9.015zM26.46 16.57c0 3.836-1.996 7.28-5.215 8.984l-.74.35c-.24.11-.51.174-.767.174-.5 0-.9-.212-1.138-.6-.19-.323-.24-.67-.17-1.065.114-.55.543-.825.67-.894 1.898-.865 3.118-2.8 3.118-4.942v-5.6c0-2.143-1.215-4.077-3.093-4.928-.005-.005-.566-.272-.694-.91-.07-.397-.02-.745.17-1.064.24-.383.638-.6 1.138-.6.258 0 .527.058.768.173 0 0 .694.326.723.338 3.23 1.713 5.23 5.16 5.23 8.996v1.585zm-14.005 6.95c.126.068.56.344.67.893.078.396.026.742-.17 1.065-.234.388-.634.6-1.136.6-.26 0-.524-.063-.77-.174l-.74-.35c-3.22-1.704-5.215-5.148-5.215-8.985v-1.586c0-3.835 2.004-7.283 5.23-8.996.032-.012.724-.34.724-.34.246-.114.51-.173.766-.173.503 0 .905.218 1.14.6.195.32.247.668.17 1.065-.127.638-.686.905-.692.91-1.878.85-3.09 2.785-3.09 4.93v5.598c0 2.142 1.214 4.077 3.11 4.94M15.78 0C7.065 0 0 7.064 0 15.775c0 8.714 7.065 15.778 15.778 15.778 8.713 0 15.778-7.064 15.778-15.778C31.556 7.065 24.49 0 15.778 0"/>
</svg>
