<svg viewbox="0 0 43.2 43.228" id="icon--phone" class="icon icon--phone">
    <path fill="#231f20" d="M29.166 3.48c1.062 1.706-.195 3.626-1.625 5.45-1.243 1.59-2.57 3.47-4.722 3.74-2.42.305-3.662-2.864-6.134-2.71-3.238.216-5.12 4.01-6.363 6.246-1.22 2.2-3.43 5.503-2.22 8.33 1.062 2.5 4.06 1.606 5.407 3.994 1.027 1.825.187 4.086-.47 5.785-.583 1.51-1.153 3.962-2.95 4.58-1.64.57-5.126-1.625-6.27-2.646C2.372 34.94.567 32.24.163 29.26c-.735-5.44 1.085-10.344 4.027-15.756C6.91 8.506 9.83 3.72 15.37 1.267c5.712-2.535 10.156-.923 13.653 1.818.075.057.083.31.143.395"/>
    <g fill="none" stroke="#231f20" stroke-width="3.531">
        <path d="M22.215 42.17l-3.283-4.382 5.517-.954"/>
        <path d="M20.07 38.3c7.85 3.29 16.88-.408 20.166-8.256 2.798-6.68.538-14.214-5.035-18.337"/>
    </g>
</svg>
