<svg viewbox="0 0 307.116 87.325" id="icon--siyanie-mono" class="icon icon--siyanie-mono">
    <path d="M39.575 17.204c.035.005.07.017.107.02.15.034.3.056.454.095.314.075.63.172.946.284.238.078.47.16.705.25.175.063.344.128.513.186 2.077.706 3.907 2.214 5.464 3.21.036.026.066.05.103.075a33.99 33.99 0 0 1 2.94 2.13c2.928 2.356 5.274 4.976 8.125 7.876 8.355 8.488 15.355 19.108 21.792 31.875 1.725 3.42 3.41 6.99 5.07 10.72 1.855 4.175 3.68 8.54 5.493 13.105a273.551 273.551 0 0 0-3.72-13.504 253.303 253.303 0 0 0-3.84-11.683c-6.83-19.183-15.768-36.648-26.25-48.21a67.406 67.406 0 0 0-1.46-1.575C49.994 5.817 43.486 1.537 36.59 0c0 0 .69 2.525.787 4.275.033.286.068.63.1.983.17 2.107.252 5.048.312 6.73.114 3.32-.445 4.587-.215 4.943.662.04 1.327.136 1.987.272h.013"/>
    <path d="M86.864 61.396c-.023.027-.054.045-.08.07-.12.1-.23.206-.353.3-.25.203-.52.39-.808.575-.202.14-.416.272-.626.4-.157.1-.315.2-.46.294-1.836 1.208-4.15 1.727-5.892 2.342-.04.015-.08.028-.122.04a34.3 34.3 0 0 1-3.482 1.017c-3.66.863-7.17 1.108-11.21 1.585-11.826 1.388-24.506.402-38.535-2.348a241.257 241.257 0 0 1-11.58-2.576c-4.433-1.094-9-2.33-13.715-3.7 4.25 1.887 8.58 3.674 12.944 5.35a258.585 258.585 0 0 0 11.582 4.132c19.338 6.375 38.615 10.034 54.176 8.85a80.477 80.477 0 0 0 2.142-.187c8.622-.934 15.995-3.445 21.44-7.945 0 0-2.418-1.005-3.863-2.002-.243-.153-.536-.333-.835-.53-1.766-1.153-4.14-2.893-5.503-3.878-2.692-1.944-3.35-3.162-3.776-3.202a13.353 13.353 0 0 1-1.442 1.413"/>
    <path d="M27.364 78.528c-.007-.037-.01-.077-.02-.112-.017-.15-.052-.3-.07-.453-.035-.32-.055-.654-.062-.99-.01-.248-.012-.495-.01-.747 0-.18 0-.368-.006-.547-.06-2.194.713-4.432 1.107-6.24.01-.042.023-.08.03-.125.272-1.227.6-2.385.968-3.495 1.19-3.57 2.83-6.68 4.55-10.365C38.89 44.665 46.4 34.4 56.12 23.915a242.585 242.585 0 0 1 8.282-8.496 348.865 348.865 0 0 1 10.36-9.716 273.21 273.21 0 0 0-11.357 8.195 254.3 254.3 0 0 0-9.606 7.673c-15.597 13.095-28.85 27.563-36.025 41.42-.33.64-.66 1.282-.965 1.918-3.746 7.825-5.487 15.418-4.525 22.415 0 0 2.125-1.527 3.734-2.23.257-.13.566-.284.886-.434 1.91-.894 4.64-1.997 6.195-2.637 3.074-1.27 4.453-1.185 4.71-1.53a13.684 13.684 0 0 1-.44-1.953l-.002-.012M182.445 26.5c-1.368-.003-2.58.3-3.638.907-1.058.606-1.588 1.432-1.59 2.47l-.027 11.516c0 1.04.48 1.854 1.442 2.435.97.584 2.224.88 3.773.88l.04-18.21zm-13.21 20.187c-1.933-1.165-3.34-2.744-4.23-4.74-.77-1.76-1.15-3.843-1.146-6.25.01-4.136 1.325-7.364 3.947-9.68 3.103-2.728 7.985-4.084 14.65-4.07l17.092.04-.08 34.274-17.093-.037.016-6.696-4.523 6.686-16.335-.04 7.7-9.486zm52.142-24.32v14.147h5.4V22.367h17.004v34.186h-17.004V41.647h-5.4v14.906h-17.004V22.367h17.005zm43.693 0V48.34c0 1.19.333 2.098 1.002 2.724.67.623 1.465.936 2.39.936.92 0 1.7-.305 2.34-.915.64-.61.96-1.523.96-2.746V22.366h5.937V48.34c0 2.352-1.014 4.257-3.036 5.714-2.53 1.844-6.486 2.766-11.87 2.766-5.387 0-9.343-.937-11.872-2.812-1.966-1.458-2.946-3.346-2.946-5.67V22.37h17.093zm40.79 0v4.462h-7.498v9.595h7.498v4.508h-7.498V52.09h8.435v4.463h-25.53V22.367h24.593zm-180.03 5.49c-2.74-.895-5.165-1.34-7.276-1.34-.837 0-1.675.112-2.525.335-.848.224-1.534.707-2.053 1.45-.518.744-.78 1.74-.78 2.99V48.34c0 2.5.92 3.75 2.765 3.75 1.042 0 2.643-.133 4.798-.403 2.16-.265 3.846-.623 5.07-1.07v5.222c-1.61.384-3.255.69-4.936.913-1.68.223-3.428.335-5.244.335-5.474 0-10.115-1.725-13.923-5.18-3.808-3.45-5.712-7.6-5.712-12.447 0-4.88 1.904-9.017 5.712-12.407 3.808-3.39 8.45-5.087 13.923-5.087h1.52c1.99 0 3.62.087 4.886.266 1.264.18 2.52.58 3.773 1.206v4.42zM146.937 22.367V48.34c0 1.19.335 2.098 1 2.724.674.623 1.47.936 2.393.936.918 0 1.702-.305 2.34-.915.64-.61.96-1.523.96-2.746V22.366h5.937V48.34c0 2.352-1.014 4.257-3.036 5.714-2.527 1.844-6.485 2.766-11.87 2.766-5.387 0-9.345-.937-11.87-2.812-1.965-1.458-2.947-3.346-2.947-5.67V22.37h17.094z"/>
</svg>
