<svg viewbox="0 0 102.284 87.324" id="icon--siyanie" class="icon icon--siyanie">
    <path fill="#ff48c9" d="M39.574 17.204c.035.005.07.017.107.02.15.034.3.056.455.095.314.074.63.17.946.283.24.078.47.16.706.25.175.063.344.128.513.186 2.076.705 3.906 2.213 5.463 3.21.036.025.066.05.103.074a33.99 33.99 0 0 1 2.94 2.13c2.928 2.356 5.274 4.976 8.125 7.876 8.356 8.488 15.356 19.108 21.793 31.875 1.725 3.42 3.41 6.99 5.07 10.72 1.855 4.175 3.68 8.54 5.493 13.105a273.551 273.551 0 0 0-3.72-13.504 253.303 253.303 0 0 0-3.84-11.683c-6.83-19.183-15.768-36.648-26.25-48.21a67.406 67.406 0 0 0-1.46-1.575C49.993 5.818 43.486 1.538 36.59 0c0 0 .69 2.525.786 4.275.033.286.068.63.1.983.17 2.107.252 5.048.312 6.73.114 3.32-.445 4.587-.215 4.943.662.04 1.327.137 1.987.273h.013"/>
    <path fill="#4c58dd" d="M86.863 61.396c-.023.027-.054.045-.08.07-.12.1-.23.206-.353.3-.25.203-.52.39-.808.575-.202.14-.416.273-.626.4-.157.1-.315.2-.46.295-1.836 1.208-4.15 1.727-5.892 2.342-.04.015-.08.028-.122.04a34.3 34.3 0 0 1-3.482 1.017c-3.66.863-7.17 1.108-11.21 1.585-11.826 1.387-24.506.4-38.535-2.35a240.017 240.017 0 0 1-11.58-2.575c-4.433-1.094-9-2.33-13.715-3.7 4.25 1.887 8.58 3.674 12.944 5.35a258.585 258.585 0 0 0 11.582 4.132c19.338 6.375 38.615 10.034 54.176 8.85a80.477 80.477 0 0 0 2.142-.187c8.622-.934 15.995-3.445 21.44-7.945 0 0-2.418-1.005-3.863-2.002-.242-.153-.535-.333-.834-.53-1.766-1.153-4.14-2.893-5.503-3.878-2.692-1.944-3.35-3.162-3.776-3.202a13.353 13.353 0 0 1-1.442 1.413"/>
    <path fill="#00f7c8" d="M27.363 78.528c-.007-.037-.01-.077-.02-.112-.017-.15-.052-.3-.07-.453-.035-.32-.055-.654-.062-.99-.01-.248-.01-.495-.01-.747 0-.18 0-.368-.005-.547-.06-2.195.713-4.433 1.107-6.24.01-.043.023-.08.03-.126.272-1.227.6-2.385.968-3.495 1.19-3.57 2.83-6.68 4.55-10.366 5.04-10.79 12.55-21.054 22.27-31.54 2.606-2.81 5.36-5.64 8.28-8.495A348.786 348.786 0 0 1 74.761 5.7a273.848 273.848 0 0 0-11.356 8.195 254.3 254.3 0 0 0-9.606 7.673C38.2 34.667 24.948 49.135 17.773 62.99c-.33.64-.66 1.283-.965 1.92-3.746 7.824-5.487 15.417-4.525 22.414 0 0 2.125-1.527 3.734-2.23.257-.13.566-.284.886-.434 1.91-.894 4.64-1.997 6.195-2.637 3.074-1.27 4.453-1.185 4.71-1.53a13.684 13.684 0 0 1-.44-1.953l-.002-.012"/>
</svg>
